<svg width="386" height="85" viewBox="0 0 386 85" fill="none" xmlns="http://www.w3.org/2000/svg">
<g clip-path="url(#clip0_226_28)">
<path d="M172.957 44.1936L179.995 44.1487C180.405 44.1461 180.813 44.201 181.209 44.312L181.377 44.3593C185.786 45.5949 185.979 52.1534 181.652 53.6764C181.234 53.8237 180.798 53.9062 180.357 53.9214L172.812 54.1811" stroke="#00E317" stroke-width="3" stroke-linecap="round"/>
<path d="M168.178 53.9013L160.889 53.9724C160.475 53.9764 160.062 53.9216 159.661 53.8092L159.445 53.7488C155.053 52.5177 154.86 45.9828 159.171 44.4654C159.624 44.3059 160.099 44.2228 160.576 44.2189L168.375 44.1565" stroke="#00E317" stroke-width="3" stroke-linecap="round"/>
<path d="M176.42 49.0632L164.841 48.9997" stroke="#00E317" stroke-width="3" stroke-linecap="round"/>
</g>
<path d="M29.76 54.456C29.76 53.048 29.824 51.768 29.952 50.616L29.824 50.424C28.6293 50.5947 27.328 50.7227 25.92 50.808C24.512 50.8507 23.2107 50.8507 22.016 50.808V42.488L38.72 42.424V64.184C36.7573 65.08 34.5173 65.784 32 66.296C29.5253 66.7653 26.368 67 22.528 67C17.408 67 13.3973 66.3173 10.496 64.952C7.59467 63.544 5.54667 61.304 4.352 58.232C3.15733 55.1173 2.56 50.9787 2.56 45.816C2.56 41.6347 3.02933 38.2 3.968 35.512C4.94933 32.824 6.35733 30.7547 8.192 29.304C10.0693 27.8107 12.352 26.7867 15.04 26.232C17.728 25.6347 20.8 25.336 24.256 25.336C26.304 25.336 28.352 25.4213 30.4 25.592C32.4907 25.7627 34.56 26.0827 36.608 26.552V35L36.416 35.128C34.624 34.7013 32.832 34.4027 31.04 34.232C29.2907 34.0613 27.52 33.976 25.728 33.976C23.1253 33.976 20.8427 34.2533 18.88 34.808C16.96 35.32 15.4667 36.408 14.4 38.072C13.3333 39.736 12.8 42.3173 12.8 45.816C12.8 49.272 13.0773 51.9173 13.632 53.752C14.2293 55.544 15.3173 56.7813 16.896 57.464C18.5173 58.104 20.8213 58.424 23.808 58.424C24.192 58.424 24.7893 58.424 25.6 58.424C26.4107 58.3813 27.2213 58.3387 28.032 58.296C28.8427 58.2533 29.4187 58.1893 29.76 58.104V54.456ZM43.5375 51.064C43.5375 45.3467 44.7535 41.2293 47.1855 38.712C49.6175 36.1947 53.7348 34.936 59.5375 34.936C63.4202 34.936 66.5348 35.4907 68.8815 36.6C71.2282 37.7093 72.9135 39.4587 73.9375 41.848C75.0042 44.1947 75.5375 47.2667 75.5375 51.064C75.5375 54.8187 75.0042 57.8693 73.9375 60.216C72.9135 62.5627 71.2282 64.2907 68.8815 65.4C66.5348 66.4667 63.4202 67 59.5375 67C53.7348 67 49.6175 65.7627 47.1855 63.288C44.7535 60.7707 43.5375 56.696 43.5375 51.064ZM59.5375 58.232C62.0122 58.232 63.6762 57.6987 64.5295 56.632C65.4255 55.5227 65.8735 53.6027 65.8735 50.872C65.8735 48.2693 65.4255 46.4133 64.5295 45.304C63.6762 44.152 62.0122 43.576 59.5375 43.576C57.1482 43.576 55.4842 44.152 54.5455 45.304C53.6495 46.4133 53.2015 48.2693 53.2015 50.872C53.2015 53.6027 53.6495 55.5227 54.5455 56.632C55.4842 57.6987 57.1482 58.232 59.5375 58.232ZM115.269 56.056C115.269 59.4693 114.202 62.0507 112.069 63.8C109.978 65.5493 106.266 66.424 100.933 66.424H80.965V25.912H83.461H100.293C103.834 25.912 106.586 26.296 108.549 27.064C110.554 27.7893 111.962 28.8773 112.773 30.328C113.584 31.7787 113.989 33.592 113.989 35.768C113.989 38.7547 113.264 41.08 111.813 42.744C110.405 44.3653 107.738 45.3467 103.813 45.688V45.88C106.714 46.0933 108.997 46.584 110.661 47.352C112.325 48.0773 113.498 49.144 114.181 50.552C114.906 51.96 115.269 53.7947 115.269 56.056ZM97.477 33.976H91.205V41.912H97.477C99.5677 41.912 101.082 41.656 102.021 41.144C102.96 40.5893 103.429 39.5227 103.429 37.944C103.429 36.408 102.96 35.3627 102.021 34.808C101.082 34.2533 99.5677 33.976 97.477 33.976ZM98.757 50.296H91.205V58.424H98.757C100.848 58.424 102.362 58.1467 103.301 57.592C104.24 56.9947 104.709 55.9067 104.709 54.328C104.709 52.7067 104.24 51.64 103.301 51.128C102.362 50.5733 100.848 50.296 98.757 50.296ZM148.484 65.4C147.289 65.8267 145.625 66.2107 143.492 66.552C141.401 66.8507 138.905 67 136.003 67C132.334 67 129.198 66.5307 126.595 65.592C124.036 64.6107 122.094 62.968 120.772 60.664C119.449 58.3173 118.788 55.0747 118.788 50.936C118.788 45.304 120.068 41.2293 122.628 38.712C125.23 36.1947 129.241 34.936 134.66 34.936C138.542 34.936 141.593 35.4907 143.812 36.6C146.073 37.7093 147.673 39.288 148.612 41.336C149.593 43.3413 150.083 45.7307 150.083 48.504C150.083 49.3147 150.041 50.1893 149.956 51.128C149.913 52.0667 149.806 52.984 149.636 53.88L149.38 54.136H128.324C128.622 56.0133 129.497 57.2507 130.948 57.848C132.441 58.4453 134.852 58.744 138.18 58.744C140.398 58.744 142.233 58.7013 143.684 58.616C145.177 58.488 146.692 58.3173 148.228 58.104L148.484 58.296V65.4ZM141.188 47.416C141.188 46.392 141.017 45.5173 140.676 44.792C140.377 44.024 139.758 43.448 138.82 43.064C137.881 42.6373 136.494 42.424 134.66 42.424C131.972 42.424 130.201 42.8933 129.348 43.832C128.537 44.728 128.132 45.9227 128.132 47.416H141.188Z" fill="#FF9900"/>
<path d="M203.256 67H191.608V26.872H203.256C207.352 26.872 210.595 27.2133 212.984 27.896C215.416 28.5787 217.357 29.6667 218.808 31.16C220.259 32.6533 221.304 34.68 221.944 37.24C222.627 39.7573 222.968 42.9787 222.968 46.904C222.968 53.8587 221.411 58.9573 218.296 62.2C215.181 65.4 210.168 67 203.256 67ZM214.712 35.064C213.731 33.912 212.365 33.08 210.616 32.568C208.867 32.056 206.413 31.8 203.256 31.8H197.048V61.88H203.256C208.547 61.88 212.216 60.7493 214.264 58.488C216.355 56.2267 217.4 52.3653 217.4 46.904C217.4 43.8747 217.187 41.4213 216.76 39.544C216.333 37.6667 215.651 36.1733 214.712 35.064ZM235.477 29.88H229.845V24.44H235.477V29.88ZM235.285 67H230.036V35.384H235.285V67ZM256.588 77.368C254.455 77.368 252.449 77.2187 250.572 76.92C248.737 76.664 247.223 76.3013 246.028 75.832V71.16C247.009 71.544 248.439 71.864 250.316 72.12C252.236 72.376 254.135 72.504 256.012 72.504C259.212 72.504 261.431 71.864 262.668 70.584C263.905 69.3467 264.524 67.128 264.524 63.928V61.944C262.945 62.8827 261.26 63.608 259.468 64.12C257.676 64.5893 255.863 64.824 254.028 64.824C249.804 64.824 246.775 63.6507 244.94 61.304C243.148 58.9573 242.252 55.1173 242.252 49.784C242.252 44.3653 243.404 40.504 245.708 38.2C248.055 35.896 252.023 34.744 257.612 34.744C259.617 34.744 261.772 34.872 264.076 35.128C266.38 35.3413 268.279 35.6187 269.772 35.96V62.456C269.772 68.0027 268.791 71.864 266.828 74.04C264.865 76.2587 261.452 77.368 256.588 77.368ZM257.612 39.48C253.516 39.48 250.807 40.184 249.484 41.592C248.161 43 247.5 45.7307 247.5 49.784C247.5 53.624 248.055 56.2907 249.164 57.784C250.316 59.2347 252.513 59.96 255.756 59.96C257.164 59.96 258.615 59.768 260.108 59.384C261.644 58.9573 263.116 58.3813 264.524 57.656V40.184C263.5 39.9707 262.391 39.8 261.196 39.672C260.044 39.544 258.849 39.48 257.612 39.48ZM283.602 29.88H277.97V24.44H283.602V29.88ZM283.41 67H278.161V35.384H283.41V67ZM310.409 62.072V66.488C309.726 66.7867 308.788 67.0213 307.593 67.192C306.441 67.4053 305.332 67.512 304.265 67.512C300.425 67.512 297.673 66.6587 296.009 64.952C294.388 63.2453 293.577 60.3013 293.577 56.12V39.864H288.841V35.384H293.641L294.473 27.704H298.825V35.384H310.089V39.864H298.825V55.928C298.825 58.5307 299.294 60.3013 300.233 61.24C301.214 62.1787 302.921 62.648 305.353 62.648C306.121 62.648 306.996 62.584 307.977 62.456C309.001 62.328 309.812 62.2 310.409 62.072ZM322.767 67.512C319.524 67.512 317.135 66.744 315.599 65.208C314.106 63.6293 313.359 61.1547 313.359 57.784C313.359 54.3707 314.276 51.96 316.111 50.552C317.946 49.1013 321.06 48.376 325.455 48.376C326.906 48.376 328.335 48.44 329.743 48.568C331.151 48.696 332.474 48.888 333.711 49.144V46.072C333.711 43.7253 333.114 42.04 331.919 41.016C330.724 39.992 328.804 39.48 326.159 39.48C324.196 39.48 322.468 39.5653 320.975 39.736C319.482 39.864 317.988 40.0987 316.495 40.44V35.896C318.202 35.4693 319.93 35.1707 321.679 35C323.471 34.8293 325.498 34.744 327.759 34.744C331.556 34.744 334.372 35.64 336.207 37.432C338.042 39.1813 338.959 41.912 338.959 45.624V67H334.159L333.903 64.056H333.775C332.495 65.08 330.831 65.912 328.783 66.552C326.778 67.192 324.772 67.512 322.767 67.512ZM326.031 52.664C323.13 52.664 321.103 53.0267 319.951 53.752C318.842 54.4347 318.287 55.672 318.287 57.464C318.287 59.3413 318.756 60.7067 319.695 61.56C320.634 62.3707 322.17 62.776 324.303 62.776C325.967 62.776 327.674 62.52 329.423 62.008C331.172 61.496 332.602 60.856 333.711 60.088V53.304C332.303 53.0907 330.98 52.9413 329.743 52.856C328.548 52.728 327.311 52.664 326.031 52.664ZM352.41 24.44V67H347.161V24.44H352.41Z" fill="#0E00B2"/>
<defs>
<clipPath id="clip0_226_28">
<rect width="41" height="58" fill="white" transform="translate(199.451 28.4307) rotate(89.8628)"/>
</clipPath>
</defs>
</svg>
