<svg width="1002" height="948" viewBox="0 0 1002 948" fill="none" xmlns="http://www.w3.org/2000/svg">
<g clip-path="url(#clip0_312_2)">
<circle cx="502" cy="503" r="400" fill="url(#paint0_linear_312_2)"/>
<path d="M301.766 563.839H710.656L742.469 678.018H262L301.766 563.839Z" fill="url(#paint1_linear_312_2)"/>
<path d="M301.768 563.839H710.657V322C710.657 316.478 706.18 312 700.657 312H502.938H311.768C306.245 312 301.768 316.478 301.768 322V563.839Z" fill="#575F9D"/>
<path d="M262.469 678.017H742.47V682.75C742.47 688.273 737.993 692.75 732.47 692.75H272.469C266.946 692.75 262.469 688.273 262.469 682.75V678.017Z" fill="#575F9D"/>
<rect x="314.865" y="326.272" width="382.691" height="223.754" fill="url(#paint2_linear_312_2)"/>
<path d="M326.952 585.46C327.281 584.118 328.484 583.175 329.866 583.175H337.893C339.674 583.175 341.063 584.717 340.877 586.488L340.298 591.998C340.137 593.525 338.849 594.685 337.314 594.685H328.514C326.568 594.685 325.137 592.86 325.601 590.97L326.952 585.46Z" fill="#575F9D"/>
<path d="M348.543 585.861C348.703 584.334 349.991 583.175 351.526 583.175H359.723C361.463 583.175 362.838 584.649 362.716 586.385L362.33 591.895C362.22 593.466 360.913 594.685 359.337 594.685H350.947C349.166 594.685 347.777 593.142 347.964 591.371L348.543 585.861Z" fill="#575F9D"/>
<path d="M369.748 585.965C369.858 584.393 371.165 583.175 372.74 583.175H379.849C381.506 583.175 382.849 584.518 382.849 586.175V591.685C382.849 593.342 381.506 594.685 379.849 594.685H372.354C370.615 594.685 369.24 593.21 369.362 591.475L369.748 585.965Z" fill="#575F9D"/>
<path d="M388.785 586.175C388.785 584.518 390.128 583.175 391.785 583.175H399.498C401.154 583.175 402.498 584.518 402.498 586.175V591.685C402.498 593.342 401.154 594.685 399.498 594.685H391.785C390.128 594.685 388.785 593.342 388.785 591.685V586.175Z" fill="#575F9D"/>
<path d="M408.434 586.175C408.434 584.518 409.777 583.175 411.434 583.175H419.146C420.803 583.175 422.146 584.518 422.146 586.175V591.685C422.146 593.342 420.803 594.685 419.146 594.685H411.434C409.777 594.685 408.434 593.342 408.434 591.685V586.175Z" fill="#575F9D"/>
<path d="M428.084 586.175C428.084 584.518 429.427 583.175 431.084 583.175H438.796C440.453 583.175 441.796 584.518 441.796 586.175V591.685C441.796 593.342 440.453 594.685 438.796 594.685H431.084C429.427 594.685 428.084 593.342 428.084 591.685V586.175Z" fill="#575F9D"/>
<path d="M447.734 586.175C447.734 584.518 449.078 583.175 450.734 583.175H458.447C460.104 583.175 461.447 584.518 461.447 586.175V591.685C461.447 593.342 460.104 594.685 458.447 594.685H450.734C449.078 594.685 447.734 593.342 447.734 591.685V586.175Z" fill="#575F9D"/>
<path d="M467.383 586.175C467.383 584.518 468.726 583.175 470.383 583.175H478.095C479.752 583.175 481.095 584.518 481.095 586.175V591.685C481.095 593.342 479.752 594.685 478.095 594.685H470.383C468.726 594.685 467.383 593.342 467.383 591.685V586.175Z" fill="#575F9D"/>
<path d="M487.031 586.175C487.031 584.518 488.374 583.175 490.031 583.175H497.744C499.401 583.175 500.744 584.518 500.744 586.175V591.685C500.744 593.342 499.401 594.685 497.744 594.685H490.031C488.374 594.685 487.031 593.342 487.031 591.685V586.175Z" fill="#575F9D"/>
<path d="M506.68 586.175C506.68 584.518 508.023 583.175 509.68 583.175H517.392C519.049 583.175 520.392 584.518 520.392 586.175V591.685C520.392 593.342 519.049 594.685 517.392 594.685H509.68C508.023 594.685 506.68 593.342 506.68 591.685V586.175Z" fill="#575F9D"/>
<path d="M526.328 586.175C526.328 584.518 527.671 583.175 529.328 583.175H537.041C538.697 583.175 540.041 584.518 540.041 586.175V591.685C540.041 593.342 538.697 594.685 537.041 594.685H529.328C527.671 594.685 526.328 593.342 526.328 591.685V586.175Z" fill="#575F9D"/>
<path d="M545.979 586.175C545.979 584.518 547.322 583.175 548.979 583.175H556.691C558.348 583.175 559.691 584.518 559.691 586.175V591.685C559.691 593.342 558.348 594.685 556.691 594.685H548.979C547.322 594.685 545.979 593.342 545.979 591.685V586.175Z" fill="#575F9D"/>
<path d="M565.627 586.175C565.627 584.518 566.97 583.175 568.627 583.175H576.339C577.996 583.175 579.339 584.518 579.339 586.175V591.685C579.339 593.342 577.996 594.685 576.339 594.685H568.627C566.97 594.685 565.627 593.342 565.627 591.685V586.175Z" fill="#575F9D"/>
<path d="M585.275 586.175C585.275 584.518 586.619 583.175 588.275 583.175H595.988C597.645 583.175 598.988 584.518 598.988 586.175V591.685C598.988 593.342 597.645 594.685 595.988 594.685H588.275C586.619 594.685 585.275 593.342 585.275 591.685V586.175Z" fill="#575F9D"/>
<path d="M604.926 586.175C604.926 584.518 606.269 583.175 607.926 583.175H615.638C617.295 583.175 618.638 584.518 618.638 586.175V591.685C618.638 593.342 617.295 594.685 615.638 594.685H607.926C606.269 594.685 604.926 593.342 604.926 591.685V586.175Z" fill="#575F9D"/>
<path d="M624.574 586.175C624.574 584.518 625.917 583.175 627.574 583.175H635.287C636.944 583.175 638.287 584.518 638.287 586.175V591.685C638.287 593.342 636.944 594.685 635.287 594.685H627.574C625.917 594.685 624.574 593.342 624.574 591.685V586.175Z" fill="#575F9D"/>
<path d="M644.225 586.175C644.225 584.518 645.568 583.175 647.225 583.175H655.744C657.401 583.175 658.744 584.518 658.744 586.175V591.685C658.744 593.342 657.401 594.685 655.744 594.685H647.225C645.568 594.685 644.225 593.342 644.225 591.685V586.175Z" fill="#575F9D"/>
<path d="M665.034 586.385C664.912 584.649 666.287 583.175 668.026 583.175H675.912C677.408 583.175 678.676 584.277 678.883 585.758L679.655 591.268C679.908 593.073 678.507 594.685 676.684 594.685H668.412C666.837 594.685 665.53 593.466 665.42 591.895L665.034 586.385Z" fill="#575F9D"/>
<path d="M323.679 602.035C324.008 600.693 325.211 599.75 326.592 599.75H334.62C336.401 599.75 337.789 601.292 337.603 603.063L337.024 608.573C336.864 610.1 335.576 611.259 334.041 611.259H325.241C323.295 611.259 321.864 609.435 322.327 607.545L323.679 602.035Z" fill="#575F9D"/>
<path d="M344.799 602.436C344.959 600.909 346.247 599.75 347.782 599.75H355.979C357.719 599.75 359.093 601.224 358.972 602.959L358.586 608.469C358.476 610.041 357.169 611.259 355.593 611.259H347.203C345.422 611.259 344.033 609.717 344.219 607.946L344.799 602.436Z" fill="#575F9D"/>
<path d="M366.004 602.54C366.114 600.968 367.421 599.75 368.996 599.75H376.105C377.762 599.75 379.105 601.093 379.105 602.75V608.259C379.105 609.916 377.762 611.259 376.105 611.259H368.61C366.871 611.259 365.496 609.785 365.618 608.05L366.004 602.54Z" fill="#575F9D"/>
<path d="M385.041 602.75C385.041 601.093 386.384 599.75 388.041 599.75H395.753C397.41 599.75 398.753 601.093 398.753 602.75V608.259C398.753 609.916 397.41 611.259 395.753 611.259H388.041C386.384 611.259 385.041 609.916 385.041 608.259V602.75Z" fill="#575F9D"/>
<path d="M404.689 602.75C404.689 601.093 406.033 599.75 407.689 599.75H415.402C417.059 599.75 418.402 601.093 418.402 602.75V608.259C418.402 609.916 417.059 611.259 415.402 611.259H407.689C406.033 611.259 404.689 609.916 404.689 608.259V602.75Z" fill="#575F9D"/>
<path d="M424.34 602.75C424.34 601.093 425.683 599.75 427.34 599.75H435.052C436.709 599.75 438.052 601.093 438.052 602.75V608.259C438.052 609.916 436.709 611.259 435.052 611.259H427.34C425.683 611.259 424.34 609.916 424.34 608.259V602.75Z" fill="#575F9D"/>
<path d="M443.99 602.75C443.99 601.093 445.333 599.75 446.99 599.75H454.703C456.36 599.75 457.703 601.093 457.703 602.75V608.259C457.703 609.916 456.36 611.259 454.703 611.259H446.99C445.333 611.259 443.99 609.916 443.99 608.259V602.75Z" fill="#575F9D"/>
<path d="M463.639 602.75C463.639 601.093 464.982 599.75 466.639 599.75H474.351C476.008 599.75 477.351 601.093 477.351 602.75V608.259C477.351 609.916 476.008 611.259 474.351 611.259H466.639C464.982 611.259 463.639 609.916 463.639 608.259V602.75Z" fill="#575F9D"/>
<path d="M483.287 602.75C483.287 601.093 484.63 599.75 486.287 599.75H494C495.656 599.75 497 601.093 497 602.75V608.259C497 609.916 495.656 611.259 494 611.259H486.287C484.63 611.259 483.287 609.916 483.287 608.259V602.75Z" fill="#575F9D"/>
<path d="M502.938 602.75C502.938 601.093 504.281 599.75 505.937 599.75H513.65C515.307 599.75 516.65 601.093 516.65 602.75V608.259C516.65 609.916 515.307 611.259 513.65 611.259H505.938C504.281 611.259 502.938 609.916 502.938 608.259V602.75Z" fill="#575F9D"/>
<path d="M522.588 602.75C522.588 601.093 523.931 599.75 525.588 599.75H533.3C534.957 599.75 536.3 601.093 536.3 602.75V608.259C536.3 609.916 534.957 611.259 533.3 611.259H525.588C523.931 611.259 522.588 609.916 522.588 608.259V602.75Z" fill="#575F9D"/>
<path d="M542.236 602.75C542.236 601.093 543.579 599.75 545.236 599.75H552.949C554.606 599.75 555.949 601.093 555.949 602.75V608.259C555.949 609.916 554.606 611.259 552.949 611.259H545.236C543.579 611.259 542.236 609.916 542.236 608.259V602.75Z" fill="#575F9D"/>
<path d="M561.885 602.75C561.885 601.093 563.228 599.75 564.885 599.75H572.597C574.254 599.75 575.597 601.093 575.597 602.75V608.259C575.597 609.916 574.254 611.259 572.597 611.259H564.885C563.228 611.259 561.885 609.916 561.885 608.259V602.75Z" fill="#575F9D"/>
<path d="M581.535 602.75C581.535 601.093 582.878 599.75 584.535 599.75H592.248C593.904 599.75 595.248 601.093 595.248 602.75V608.259C595.248 609.916 593.904 611.259 592.248 611.259H584.535C582.878 611.259 581.535 609.916 581.535 608.259V602.75Z" fill="#575F9D"/>
<path d="M601.184 602.75C601.184 601.093 602.527 599.75 604.184 599.75H611.896C613.553 599.75 614.896 601.093 614.896 602.75V608.259C614.896 609.916 613.553 611.259 611.896 611.259H604.184C602.527 611.259 601.184 609.916 601.184 608.259V602.75Z" fill="#575F9D"/>
<path d="M620.832 602.75C620.832 601.093 622.175 599.75 623.832 599.75H631.544C633.201 599.75 634.545 601.093 634.545 602.75V608.259C634.545 609.916 633.201 611.259 631.545 611.259H623.832C622.175 611.259 620.832 609.916 620.832 608.259V602.75Z" fill="#575F9D"/>
<path d="M640.48 602.75C640.48 601.093 641.824 599.75 643.48 599.75H652C653.656 599.75 655 601.093 655 602.75V608.259C655 609.916 653.656 611.259 652 611.259H643.48C641.824 611.259 640.48 609.916 640.48 608.259V602.75Z" fill="#575F9D"/>
<path d="M661.403 603.055C661.222 601.287 662.61 599.75 664.388 599.75H677.872C679.297 599.75 680.525 600.751 680.811 602.147L681.846 607.197C682.228 609.057 680.807 610.799 678.908 610.799H664.905C663.367 610.799 662.078 609.635 661.921 608.105L661.403 603.055Z" fill="#575F9D"/>
<path d="M319.635 618.474C320.011 617.199 321.182 616.324 322.512 616.324H351.163C352.82 616.324 354.163 617.667 354.163 619.324V625.294C354.163 626.951 352.82 628.294 351.163 628.294H320.75C318.746 628.294 317.305 626.367 317.873 624.445L319.635 618.474Z" fill="#575F9D"/>
<path d="M361.326 619.114C361.436 617.542 362.743 616.324 364.319 616.324H371.427C373.084 616.324 374.427 617.667 374.427 619.324V624.834C374.427 626.491 373.084 627.834 371.427 627.834H363.932C362.193 627.834 360.818 626.359 360.94 624.624L361.326 619.114Z" fill="#575F9D"/>
<path d="M380.363 619.324C380.363 617.667 381.706 616.324 383.363 616.324H391.076C392.733 616.324 394.076 617.667 394.076 619.324V624.834C394.076 626.491 392.733 627.834 391.076 627.834H383.363C381.706 627.834 380.363 626.491 380.363 624.834V619.324Z" fill="#575F9D"/>
<path d="M400.014 619.324C400.014 617.667 401.357 616.324 403.014 616.324H410.726C412.383 616.324 413.726 617.667 413.726 619.324V624.834C413.726 626.491 412.383 627.834 410.726 627.834H403.014C401.357 627.834 400.014 626.491 400.014 624.834V619.324Z" fill="#575F9D"/>
<path d="M419.662 619.324C419.662 617.667 421.005 616.324 422.662 616.324H430.375C432.031 616.324 433.375 617.667 433.375 619.324V624.834C433.375 626.491 432.031 627.834 430.375 627.834H422.662C421.005 627.834 419.662 626.491 419.662 624.834V619.324Z" fill="#575F9D"/>
<path d="M439.311 619.324C439.311 617.667 440.654 616.324 442.311 616.324H450.023C451.68 616.324 453.023 617.667 453.023 619.324V624.834C453.023 626.491 451.68 627.834 450.023 627.834H442.311C440.654 627.834 439.311 626.491 439.311 624.834V619.324Z" fill="#575F9D"/>
<path d="M458.959 619.324C458.959 617.667 460.302 616.324 461.959 616.324H469.671C471.328 616.324 472.671 617.667 472.671 619.324V624.834C472.671 626.491 471.328 627.834 469.671 627.834H461.959C460.302 627.834 458.959 626.491 458.959 624.834V619.324Z" fill="#575F9D"/>
<path d="M478.609 619.324C478.609 617.667 479.953 616.324 481.609 616.324H489.322C490.979 616.324 492.322 617.667 492.322 619.324V624.834C492.322 626.491 490.979 627.834 489.322 627.834H481.609C479.953 627.834 478.609 626.491 478.609 624.834V619.324Z" fill="#575F9D"/>
<path d="M498.258 619.324C498.258 617.667 499.601 616.324 501.258 616.324H508.97C510.627 616.324 511.97 617.667 511.97 619.324V624.834C511.97 626.491 510.627 627.834 508.97 627.834H501.258C499.601 627.834 498.258 626.491 498.258 624.834V619.324Z" fill="#575F9D"/>
<path d="M517.906 619.324C517.906 617.667 519.249 616.324 520.906 616.324H528.619C530.276 616.324 531.619 617.667 531.619 619.324V624.834C531.619 626.491 530.276 627.834 528.619 627.834H520.906C519.249 627.834 517.906 626.491 517.906 624.834V619.324Z" fill="#575F9D"/>
<path d="M537.557 619.324C537.557 617.667 538.9 616.324 540.557 616.324H548.269C549.926 616.324 551.269 617.667 551.269 619.324V624.834C551.269 626.491 549.926 627.834 548.269 627.834H540.557C538.9 627.834 537.557 626.491 537.557 624.834V619.324Z" fill="#575F9D"/>
<path d="M557.207 619.324C557.207 617.667 558.55 616.324 560.207 616.324H567.919C569.576 616.324 570.92 617.667 570.92 619.324V624.834C570.92 626.491 569.576 627.834 567.92 627.834H560.207C558.55 627.834 557.207 626.491 557.207 624.834V619.324Z" fill="#575F9D"/>
<path d="M576.855 619.324C576.855 617.667 578.199 616.324 579.855 616.324H587.568C589.225 616.324 590.568 617.667 590.568 619.324V624.834C590.568 626.491 589.225 627.834 587.568 627.834H579.855C578.199 627.834 576.855 626.491 576.855 624.834V619.324Z" fill="#575F9D"/>
<path d="M596.504 619.324C596.504 617.667 597.847 616.324 599.504 616.324H607.216C608.873 616.324 610.216 617.667 610.216 619.324V624.834C610.216 626.491 608.873 627.834 607.216 627.834H599.504C597.847 627.834 596.504 626.491 596.504 624.834V619.324Z" fill="#575F9D"/>
<path d="M616.152 619.324C616.152 617.667 617.495 616.324 619.152 616.324H626.865C628.522 616.324 629.865 617.667 629.865 619.324V624.834C629.865 626.491 628.522 627.834 626.865 627.834H619.152C617.495 627.834 616.152 626.491 616.152 624.834V619.324Z" fill="#575F9D"/>
<path d="M635.801 619.324C635.801 617.667 637.144 616.324 638.801 616.324H647.32C648.977 616.324 650.32 617.667 650.32 619.324V624.834C650.32 626.491 648.977 627.834 647.32 627.834H638.801C637.144 627.834 635.801 626.491 635.801 624.834V619.324Z" fill="#575F9D"/>
<path d="M656.843 619.721C656.602 617.923 658.002 616.324 659.816 616.324H679.201C680.559 616.324 681.748 617.236 682.099 618.549L683.449 623.598C683.959 625.503 682.523 627.373 680.551 627.373H660.492C658.988 627.373 657.717 626.261 657.518 624.771L656.843 619.721Z" fill="#575F9D"/>
<path d="M651.197 641.378C650.974 639.818 652.185 638.423 653.761 638.423H661.379C662.535 638.423 663.552 639.19 663.869 640.302V640.302C664.341 641.956 663.099 643.602 661.379 643.602H653.761C652.472 643.602 651.379 642.654 651.197 641.378V641.378Z" fill="#575F9D"/>
<path d="M665.744 638.423H678.302L678.689 639.779C679.235 641.696 677.796 643.602 675.804 643.602H669.085C667.592 643.602 666.326 642.504 666.115 641.026L665.744 638.423Z" fill="#575F9D"/>
<path d="M665.297 636.322C665.039 634.515 666.441 632.898 668.267 632.898H675.102C676.442 632.898 677.62 633.787 677.987 635.076L678.844 638.078H665.547L665.297 636.322Z" fill="#575F9D"/>
<path d="M681.134 641.378C680.912 639.818 682.122 638.423 683.698 638.423H691.316C692.473 638.423 693.489 639.19 693.807 640.302V640.302C694.279 641.956 693.036 643.602 691.316 643.602H683.698C682.409 643.602 681.316 642.654 681.134 641.378V641.378Z" fill="#575F9D"/>
<path d="M313.386 635.184C313.715 633.842 314.918 632.898 316.299 632.898H324.327C326.108 632.898 327.497 634.441 327.31 636.212L326.731 641.722C326.571 643.249 325.283 644.408 323.748 644.408H314.948C313.002 644.408 311.571 642.584 312.034 640.694L313.386 635.184Z" fill="#575F9D"/>
<path d="M335.443 635.585C335.604 634.058 336.891 632.898 338.427 632.898H346.624C348.363 632.898 349.738 634.373 349.616 636.108L349.23 641.618C349.12 643.19 347.813 644.408 346.238 644.408H337.848C336.067 644.408 334.678 642.866 334.864 641.095L335.443 635.585Z" fill="#575F9D"/>
<path d="M356.646 635.689C356.756 634.117 358.063 632.898 359.639 632.898H366.748C368.404 632.898 369.748 634.242 369.748 635.898V641.408C369.748 643.065 368.404 644.408 366.748 644.408H359.253C357.513 644.408 356.138 642.934 356.26 641.199L356.646 635.689Z" fill="#575F9D"/>
<path d="M376.621 635.898C376.621 634.242 377.964 632.898 379.621 632.898H387.334C388.99 632.898 390.334 634.242 390.334 635.898V641.408C390.334 643.065 388.99 644.408 387.334 644.408H379.621C377.964 644.408 376.621 643.065 376.621 641.408V635.898Z" fill="#575F9D"/>
<path d="M397.203 635.898C397.203 634.242 398.546 632.898 400.203 632.898H407.916C409.572 632.898 410.916 634.242 410.916 635.898V641.408C410.916 643.065 409.572 644.408 407.916 644.408H400.203C398.546 644.408 397.203 643.065 397.203 641.408V635.898Z" fill="#575F9D"/>
<path d="M418.725 635.898C418.725 634.242 420.068 632.898 421.725 632.898H429.437C431.094 632.898 432.437 634.242 432.437 635.898V641.408C432.437 643.065 431.094 644.408 429.437 644.408H421.725C420.068 644.408 418.725 643.065 418.725 641.408V635.898Z" fill="#575F9D"/>
<path d="M439.311 635.898C439.311 634.242 440.654 632.898 442.311 632.898H542.977C544.634 632.898 545.977 634.242 545.977 635.898V640.948C545.977 642.605 544.634 643.948 542.977 643.948H442.311C440.654 643.948 439.311 642.605 439.311 640.948V635.898Z" fill="#575F9D"/>
<path d="M554.398 635.898C554.398 634.242 555.742 632.898 557.398 632.898H565.111C566.768 632.898 568.111 634.242 568.111 635.898V641.408C568.111 643.065 566.768 644.408 565.111 644.408H557.398C555.742 644.408 554.398 643.065 554.398 641.408V635.898Z" fill="#575F9D"/>
<path d="M574.982 635.898C574.982 634.242 576.326 632.898 577.982 632.898H585.695C587.352 632.898 588.695 634.242 588.695 635.898V641.408C588.695 643.065 587.352 644.408 585.695 644.408H577.982C576.326 644.408 574.982 643.065 574.982 641.408V635.898Z" fill="#575F9D"/>
<path d="M592.76 635.898C592.76 634.242 594.103 632.898 595.76 632.898H603.472C605.129 632.898 606.472 634.242 606.472 635.898V641.408C606.472 643.065 605.129 644.408 603.472 644.408H595.76C594.103 644.408 592.76 643.065 592.76 641.408V635.898Z" fill="#575F9D"/>
<path d="M614.281 635.898C614.281 634.242 615.624 632.898 617.281 632.898H624.994C626.651 632.898 627.994 634.242 627.994 635.898V641.408C627.994 643.065 626.651 644.408 624.994 644.408H617.281C615.624 644.408 614.281 643.065 614.281 641.408V635.898Z" fill="#575F9D"/>
<path d="M632.996 635.898C632.996 634.242 634.339 632.898 635.996 632.898H644.515C646.172 632.898 647.515 634.242 647.515 635.898V641.408C647.515 643.065 646.172 644.408 644.515 644.408H635.996C634.339 644.408 632.996 643.065 632.996 641.408V635.898Z" fill="#575F9D"/>
<rect x="351.354" y="364.025" width="307.837" height="36.832" rx="18.416" fill="white"/>
<path d="M611.346 364.025H640.775C650.946 364.025 659.191 372.27 659.191 382.441V382.441C659.191 392.612 650.946 400.857 640.775 400.857H611.346V364.025Z" fill="#C2D7FF"/>
<path d="M636.354 386.781L636.066 387.306L635.527 387.989L634.985 388.566L634.586 388.881L641.572 395.757C642.111 396.287 642.967 396.27 643.485 395.719V395.719C644.002 395.169 643.985 394.292 643.447 393.762L636.354 386.781Z" fill="white"/>
<path d="M625.122 386.332C627.811 389.143 632.215 389.189 634.96 386.44C637.704 383.69 637.752 379.183 635.063 376.372C632.375 373.561 627.97 373.515 625.226 376.264C622.481 379.014 622.433 383.521 625.122 386.332Z" stroke="white" stroke-width="5"/>
<rect x="358.844" y="422.035" width="105.731" height="96.6839" rx="20" fill="white"/>
<path d="M361.665 491.196L369.464 478.488L375.47 482.354L378.847 470.741L384.055 474.901L393.401 479.279L395.658 466.709L398.982 446.555L406.811 458.42L412.279 441.543L419.559 450.997L434.436 426.357" stroke="#FFD789" stroke-width="2"/>
<path d="M410.724 487.632C410.707 477.787 418.826 469.656 429.027 469.64C439.228 469.623 447.374 477.727 447.391 487.572C447.407 497.417 439.289 505.548 429.088 505.565C418.887 505.582 410.74 497.478 410.724 487.632Z" stroke="url(#paint3_linear_312_2)" stroke-width="10"/>
<path d="M410.761 487.67C410.744 477.825 418.863 469.695 429.064 469.678C439.265 469.661 447.411 477.765 447.428 487.61C447.445 497.455 439.326 505.586 429.125 505.603C418.924 505.62 410.778 497.516 410.761 487.67Z" stroke="url(#paint4_linear_312_2)" stroke-width="10"/>
<path d="M410.761 487.67C410.744 477.825 418.863 469.695 429.064 469.678C439.265 469.661 447.411 477.765 447.428 487.61C447.445 497.455 439.326 505.586 429.125 505.603C418.924 505.62 410.778 497.516 410.761 487.67Z" stroke="url(#paint5_linear_312_2)" stroke-width="10"/>
<rect x="512.293" y="422.035" width="146.366" height="96.6839" rx="10" fill="white"/>
<rect x="517.305" y="440.78" width="136.341" height="6.90599" rx="3.453" fill="#C2D7FF"/>
<rect x="517.305" y="452.619" width="64.1605" height="32.5568" rx="5" fill="#FFD789"/>
<rect x="517.305" y="505.894" width="41.1028" height="5.91942" rx="2.95971" fill="#E4EDFF"/>
<rect x="517.305" y="497.014" width="50.1254" height="5.91942" rx="2.95971" fill="#E4EDFF"/>
<rect x="517.305" y="489.122" width="64.1605" height="5.91942" rx="2.95971" fill="#E4EDFF"/>
<rect x="591.49" y="454.592" width="58.1455" height="9.8657" rx="4.93285" fill="#E4EDFF"/>
<rect x="591.49" y="468.404" width="41.1028" height="5.91942" rx="2.95971" fill="#E4EDFF"/>
<rect x="591.49" y="478.269" width="37.0928" height="5.91942" rx="2.95971" fill="#E4EDFF"/>
<path d="M512.293 432.035C512.293 426.512 516.77 422.035 522.293 422.035H648.659C654.182 422.035 658.659 426.512 658.659 432.035V434.861H512.293V432.035Z" fill="#FFA800"/>
<ellipse cx="605.527" cy="501.947" rx="13.0326" ry="12.8254" fill="#E3FBFB"/>
<ellipse cx="636.603" cy="501.947" rx="13.0326" ry="12.8254" fill="#E3FBFB"/>
<ellipse cx="527.832" cy="428.448" rx="2.50627" ry="2.46643" fill="#FFED91"/>
<ellipse cx="519.811" cy="428.448" rx="2.50627" ry="2.46643" fill="#D70000"/>
<ellipse cx="519.811" cy="428.448" rx="2.50627" ry="2.46643" fill="#D70000"/>
<ellipse cx="535.85" cy="428.448" rx="2.50627" ry="2.46643" fill="#10C900"/>
<path d="M775.572 821.67C789.024 864.053 767.255 908.548 727.289 921.233C687.322 933.917 643.879 910.118 630.428 867.734C616.976 825.35 638.745 780.855 678.711 768.171C718.678 755.487 762.121 779.286 775.572 821.67Z" fill="white" stroke="#E4EDFF" stroke-width="5"/>
<path d="M709.011 860.151L716.217 854.12L743.953 886.893C745.629 888.874 745.375 891.83 743.385 893.495C741.395 895.161 738.423 894.905 736.747 892.924L709.011 860.151Z" fill="#FFA800" stroke="#FFA800" stroke-width="4"/>
<path d="M725.595 839.58C720.804 857.141 702.599 867.53 684.918 862.76C667.237 857.99 656.807 839.875 661.598 822.314C666.388 804.753 684.593 794.364 702.274 799.134C719.955 803.904 730.385 822.019 725.595 839.58Z" stroke="#FFA800" stroke-width="4"/>
<path d="M678.997 839.254L680.144 840.714C684.02 845.647 689.945 848.527 696.218 848.528V848.528" stroke="#FFD789" stroke-width="4" stroke-linecap="round"/>
<path d="M372.572 821.67C386.024 864.053 364.255 908.548 324.289 921.233C284.322 933.917 240.879 910.118 227.428 867.734C213.976 825.35 235.745 780.855 275.711 768.171C315.678 755.487 359.121 779.286 372.572 821.67Z" fill="white" stroke="#E4EDFF" stroke-width="5"/>
<circle cx="300.57" cy="846.546" r="50.2148" fill="#FFD789"/>
<path d="M300.569 846.546L300.569 796.332L303.917 796.332V796.332C315.772 796.978 326.989 801.996 335.384 810.392V810.392L300.569 846.546Z" fill="#E3FBFB"/>
<path d="M300.724 846.546L333.039 884.7V884.7C325.02 891.858 314.807 896.078 304.074 896.667L300.358 896.871V896.871C288.47 896.928 276.964 892.673 267.974 884.894L267.761 884.709L300.724 846.546Z" fill="#E4EDFF"/>
<path d="M300.365 847.089L267.764 884.709V884.709C257.674 875.907 251.408 863.521 250.294 850.177L250.223 849.318L300.365 847.089Z" fill="#C2D7FF"/>
<path d="M300.226 847.031L335.385 810.393L338.707 813.714L339.714 814.946C347.69 824.713 351.669 837.139 350.851 849.723V849.723C349.954 863.5 343.383 876.291 332.707 885.045V885.045L300.226 847.031Z" fill="#FFA800"/>
<path d="M172.572 442.67C186.024 485.054 164.255 529.549 124.289 542.233C84.3221 554.917 40.8791 531.118 27.4277 488.734C13.9763 446.351 35.7449 401.856 75.7114 389.171C115.678 376.487 159.121 400.286 172.572 442.67Z" fill="white" stroke="#E4EDFF" stroke-width="5"/>
<rect x="48.5605" y="439.815" width="99.3509" height="66.6876" rx="10" fill="#FFA800" fill-opacity="0.2"/>
<rect x="51.9629" y="452.745" width="92.5461" height="4.7634" rx="2.3817" fill="#C2D7FF"/>
<rect x="51.9629" y="460.91" width="43.5511" height="22.456" rx="5" fill="#FFD789"/>
<rect x="51.9629" y="497.656" width="27.8999" height="4.08291" rx="2.04146" fill="#E4EDFF"/>
<rect x="51.9629" y="491.531" width="34.0243" height="4.08291" rx="2.04146" fill="#E4EDFF"/>
<rect x="51.9629" y="486.088" width="43.5511" height="4.08291" rx="2.04146" fill="#E4EDFF"/>
<rect x="102.316" y="462.271" width="39.4682" height="6.80486" rx="3.40243" fill="#E4EDFF"/>
<rect x="102.316" y="471.798" width="27.8999" height="4.08291" rx="2.04146" fill="#E4EDFF"/>
<rect x="102.316" y="478.603" width="25.178" height="4.08291" rx="2.04146" fill="#E4EDFF"/>
<path d="M48.5605 448.661C48.5605 443.776 52.5212 439.815 57.4069 439.815L139.065 439.815C143.951 439.815 147.911 443.776 147.911 448.661V448.661L48.5605 448.661V448.661Z" fill="#FFA800"/>
<ellipse cx="111.846" cy="494.935" rx="8.84631" ry="8.84631" fill="#E3FBFB"/>
<ellipse cx="132.94" cy="494.935" rx="8.84631" ry="8.84631" fill="#E3FBFB"/>
<ellipse cx="59.1075" cy="444.239" rx="1.70121" ry="1.70121" fill="#FFED91"/>
<ellipse cx="53.6641" cy="444.239" rx="1.70121" ry="1.70121" fill="#D70000"/>
<ellipse cx="53.6641" cy="444.239" rx="1.70121" ry="1.70121" fill="#D70000"/>
<ellipse cx="64.5528" cy="444.239" rx="1.70121" ry="1.70121" fill="#10C900"/>
<path d="M572.572 79.6698C586.024 122.054 564.255 166.549 524.289 179.233C484.322 191.917 440.879 168.118 427.428 125.734C413.976 83.3507 435.745 38.8556 475.711 26.1715C515.678 13.4873 559.121 37.286 572.572 79.6698Z" fill="white" stroke="#E4EDFF" stroke-width="5"/>
<path d="M500.036 120.562C514.88 120.562 526.912 108.529 526.912 93.6862C526.912 78.8429 514.88 66.8101 500.036 66.8101C485.193 66.8101 473.16 78.8429 473.16 93.6862C473.16 108.529 485.193 120.562 500.036 120.562Z" fill="#FFB6B6"/>
<path d="M484.608 124.536L483.393 112.263L507.64 107.729L521.958 142.589L497.058 171.224L479.316 136.364L484.608 124.536Z" fill="#FFB6B6"/>
<path d="M483.003 118.407L488.304 119.604C488.304 119.604 484.136 106.39 485.551 105.129C486.965 103.867 490.431 105.855 490.431 105.855L494.074 109.939L498.51 105.422C498.51 105.422 503.327 99.4325 505.213 97.7505C507.098 96.0684 504.069 89.8249 504.069 89.8249C504.069 89.8249 532.048 82.2805 521.637 68.7098C521.637 68.7098 515.533 58.0699 513.545 61.5359C511.558 65.0019 509.187 59.4972 509.187 59.4972L501.95 60.8735C501.95 60.8735 487.665 52.451 474.107 70.4692C460.55 88.4875 483.003 118.407 483.003 118.407Z" fill="#2F2E41"/>
<path d="M550.584 159.676C535.896 171.584 521.242 177.227 502.072 177.227C484.568 177.227 464.377 172.658 450.43 162.654C450.455 162.393 450.479 162.135 450.501 161.876C450.872 157.83 451.202 153.896 451.419 150.634C452.263 137.969 481.81 129.528 481.81 129.528C481.81 129.528 481.944 129.662 482.211 129.895C483.842 131.327 490.463 136.519 502.072 137.969C512.424 139.264 515.833 133.123 516.863 130.182C517.174 129.285 517.267 128.685 517.267 128.685L547.658 143.036C549.641 145.869 550.416 151.969 550.568 158.826C550.574 159.109 550.581 159.389 550.584 159.676Z" fill="#FFD789"/>
<path d="M977.117 447.172C989.192 490.98 965.177 535.431 923.806 546.65C882.436 557.87 838.959 531.722 826.883 487.914C814.808 444.106 838.823 399.655 880.194 388.436C921.564 377.216 965.041 403.364 977.117 447.172Z" fill="white" stroke="#E4EDFF" stroke-width="5"/>
<path d="M856.65 503.115C856.65 501.458 857.994 500.115 859.65 500.115L870.934 500.115C872.591 500.115 873.934 501.458 873.934 503.115L873.934 521.515L856.65 521.515L856.65 503.115Z" fill="#FFD789"/>
<path d="M856.65 503.115C856.65 501.458 857.994 500.115 859.65 500.115L870.934 500.115C872.591 500.115 873.934 501.458 873.934 503.115L873.934 521.515L856.65 521.515L856.65 503.115Z" fill="#FFA800"/>
<path d="M881.342 487.477C881.342 485.82 882.685 484.477 884.342 484.477L895.626 484.477C897.283 484.477 898.626 485.82 898.626 487.477L898.626 521.514L881.342 521.514L881.342 487.477Z" fill="#FFD789"/>
<path d="M881.342 487.477C881.342 485.82 882.685 484.477 884.342 484.477L895.626 484.477C897.283 484.477 898.626 485.82 898.626 487.477L898.626 521.514L881.342 521.514L881.342 487.477Z" fill="#FFA800"/>
<path d="M906.033 469.37C906.033 467.713 907.376 466.37 909.033 466.37L920.317 466.37C921.974 466.37 923.317 467.713 923.317 469.37L923.317 520.691L906.033 520.691L906.033 469.37Z" fill="#FFD789"/>
<path d="M906.033 469.37C906.033 467.713 907.376 466.37 909.033 466.37L920.317 466.37C921.974 466.37 923.317 467.713 923.317 469.37L923.317 520.691L906.033 520.691L906.033 469.37Z" fill="#FFA800"/>
<path d="M930.715 451.929C930.715 450.272 932.058 448.929 933.715 448.929L945.304 448.929C946.961 448.929 948.304 450.272 948.304 451.929L948.304 520.64L930.715 520.64L930.715 451.929Z" fill="#FFD789"/>
<path d="M930.715 451.929C930.715 450.272 932.058 448.929 933.715 448.929L945.304 448.929C946.961 448.929 948.304 450.272 948.304 451.929L948.304 520.64L930.715 520.64L930.715 451.929Z" fill="#FFA800"/>
<path d="M934.112 426.052L936.172 427.468L936.172 427.468L934.112 426.052ZM942.236 417.355C941.985 415.997 940.681 415.1 939.323 415.352L917.199 419.449C915.842 419.7 914.945 421.004 915.196 422.362C915.448 423.72 916.752 424.616 918.11 424.365L937.775 420.723L941.417 440.389C941.668 441.747 942.973 442.643 944.33 442.392C945.688 442.14 946.585 440.836 946.333 439.478L942.236 417.355ZM936.172 427.468L941.838 419.226L937.718 416.393L932.052 424.636L936.172 427.468ZM851.423 484.45C885.885 476.911 916.186 456.538 936.172 427.468L932.052 424.636C912.786 452.659 883.576 472.298 850.354 479.566L851.423 484.45Z" fill="#E4EDFF"/>
</g>
<defs>
<linearGradient id="paint0_linear_312_2" x1="226" y1="167" x2="1210" y2="965.5" gradientUnits="userSpaceOnUse">
<stop stop-color="white" stop-opacity="0"/>
<stop offset="0.0001" stop-color="#FFBF44" stop-opacity="0.05"/>
<stop offset="1" stop-color="#FFA800" stop-opacity="0.1"/>
</linearGradient>
<linearGradient id="paint1_linear_312_2" x1="509.486" y1="633.359" x2="511.751" y2="678.022" gradientUnits="userSpaceOnUse">
<stop stop-color="#E4EDFF"/>
<stop offset="1" stop-color="#C2D7FF"/>
</linearGradient>
<linearGradient id="paint2_linear_312_2" x1="506.678" y1="412.828" x2="506.678" y2="550.027" gradientUnits="userSpaceOnUse">
<stop stop-color="#E5FAFF"/>
<stop offset="1" stop-color="#C6F1FF"/>
</linearGradient>
<linearGradient id="paint3_linear_312_2" x1="405.724" y1="487.641" x2="429.057" y2="487.601" gradientUnits="userSpaceOnUse">
<stop stop-color="#FFD789"/>
<stop offset="0.99" stop-color="#FFD789"/>
<stop offset="1" stop-color="white"/>
</linearGradient>
<linearGradient id="paint4_linear_312_2" x1="429.056" y1="507.694" x2="429.056" y2="487.602" gradientUnits="userSpaceOnUse">
<stop stop-color="#FFED91"/>
<stop offset="0.99" stop-color="#FFED91"/>
<stop offset="1" stop-color="white" stop-opacity="0"/>
</linearGradient>
<linearGradient id="paint5_linear_312_2" x1="448.889" y1="487.602" x2="429.094" y2="487.642" gradientUnits="userSpaceOnUse">
<stop stop-color="#FFA800"/>
<stop offset="0.99" stop-color="#FFA800"/>
<stop offset="1" stop-color="white" stop-opacity="0"/>
</linearGradient>
<clipPath id="clip0_312_2">
<rect width="1002" height="947.404" fill="white"/>
</clipPath>
</defs>
</svg>
