<svg width="1695" height="1015" viewBox="0 0 1695 1015" fill="none" xmlns="http://www.w3.org/2000/svg">
<path d="M1358.14 0.36499H714.275V412.723H1358.14V0.36499Z" fill="#E6EFFF"/>
<path d="M1339.73 52.085H732.686V388.328H1339.73V52.085Z" fill="white"/>
<path d="M1357.86 0H714V27.3536H1357.86V0Z" fill="#F9A826"/>
<path d="M734.328 19.0544C737.128 19.0544 739.397 16.7845 739.397 13.9846C739.397 11.1846 737.128 8.91479 734.328 8.91479C731.528 8.91479 729.258 11.1846 729.258 13.9846C729.258 16.7845 731.528 19.0544 734.328 19.0544Z" fill="white"/>
<path d="M753.57 19.0544C756.37 19.0544 758.64 16.7845 758.64 13.9846C758.64 11.1846 756.37 8.91479 753.57 8.91479C750.77 8.91479 748.5 11.1846 748.5 13.9846C748.5 16.7845 750.77 19.0544 753.57 19.0544Z" fill="white"/>
<path d="M772.814 19.0544C775.614 19.0544 777.884 16.7845 777.884 13.9846C777.884 11.1846 775.614 8.91479 772.814 8.91479C770.014 8.91479 767.744 11.1846 767.744 13.9846C767.744 16.7845 770.014 19.0544 772.814 19.0544Z" fill="white"/>
<path d="M943.824 86.9729H787.844V353.44H943.824V86.9729Z" fill="#E6EFFF"/>
<path d="M1100.73 86.9729H970.75V160.321H1100.73V86.9729Z" fill="#F9A826"/>
<path d="M1100.73 180.747H970.75V259.666H1100.73V180.747Z" fill="#E6EFFF"/>
<path d="M1100.73 280.092H970.75V353.44H1100.73V280.092Z" fill="#E6EFFF"/>
<path d="M1284.57 86.9729H1128.59V203.098H1284.57V86.9729Z" fill="#E6EFFF"/>
<path d="M1284.57 237.315H1128.59V353.44H1284.57V237.315Z" fill="#E6EFFF"/>
<path d="M1133.58 41.5465C1113.58 24.6668 1089.1 13.9653 1063.12 10.7442C1037.15 7.52309 1010.8 11.9213 987.275 23.4035C963.754 34.8858 944.077 52.957 930.639 75.4183C917.201 97.8795 910.582 123.762 911.586 149.917C912.59 176.072 921.174 201.371 936.295 222.736C951.415 244.101 972.419 260.61 996.751 270.256C1021.08 279.901 1047.69 282.266 1073.35 277.063C1099 271.86 1122.58 259.313 1141.24 240.949L1306.85 380.697C1309.37 382.827 1312.64 383.87 1315.92 383.594C1319.21 383.319 1322.26 381.748 1324.39 379.229C1326.52 376.709 1327.56 373.446 1327.29 370.157C1327.01 366.869 1325.44 363.825 1322.92 361.694L1322.9 361.679L1157.28 221.931C1176.52 194.318 1184.76 160.515 1180.37 127.147C1175.99 93.7795 1159.3 63.2517 1133.58 41.5465ZM1122.9 208.474C1110 223.765 1092.85 234.887 1073.63 240.432C1054.41 245.978 1033.97 245.699 1014.91 239.63C995.843 233.562 979.006 221.976 966.526 206.338C954.046 190.701 946.484 171.714 944.795 151.778C943.106 131.842 947.366 111.853 957.038 94.3392C966.709 76.825 981.357 62.5719 999.129 53.3825C1016.9 44.1931 1037 40.48 1056.88 42.7127C1076.76 44.9455 1095.54 53.0239 1110.83 65.9262C1120.98 74.4931 1129.35 84.9758 1135.45 96.7759C1141.55 108.576 1145.27 121.462 1146.39 134.699C1147.51 147.936 1146.01 161.264 1141.98 173.922C1137.95 186.581 1131.47 198.321 1122.9 208.474Z" fill="#575F9D"/>
<path opacity="0.3" d="M980.355 220.551C960.949 204.174 948.411 181.099 945.231 155.906C942.051 130.714 948.461 105.247 963.189 84.5618C961.255 86.5096 959.385 88.5496 957.58 90.6817C949.013 100.834 942.53 112.575 938.5 125.234C934.471 137.892 932.974 151.22 934.095 164.457C935.217 177.694 938.934 190.58 945.036 202.38C951.138 214.18 959.504 224.663 969.656 233.23C979.809 241.796 991.55 248.28 1004.21 252.309C1016.87 256.339 1030.19 257.835 1043.43 256.714C1056.67 255.593 1069.55 251.875 1081.35 245.773C1093.15 239.672 1103.64 231.306 1112.2 221.153C1114.01 219.018 1115.7 216.832 1117.29 214.594C1099.38 232.592 1075.36 243.195 1049.99 244.299C1024.62 245.402 999.762 236.925 980.355 220.551Z" fill="black"/>
<g clip-path="url(#clip0_316_595)">
<path d="M743.208 999.193L729.128 999.192L722.43 944.885L743.21 944.886L743.208 999.193Z" fill="#FFB8B8"/>
<path d="M746.799 1012.84L701.4 1012.84V1012.26C701.401 1007.58 703.263 1003.08 706.576 999.77C709.89 996.457 714.385 994.595 719.071 994.595H719.072L746.8 994.596L746.799 1012.84Z" fill="#2F2E41"/>
<path d="M805.35 964.578L796.211 975.289L750.551 945.133L764.04 929.326L805.35 964.578Z" fill="#FFB8B8"/>
<path d="M818.063 970.706L788.594 1005.24L788.157 1004.87C784.592 1001.83 782.382 997.492 782.012 992.82C781.642 988.148 783.143 983.521 786.185 979.956L786.186 979.955L804.185 958.863L818.063 970.706Z" fill="#02006E"/>
<path d="M643.237 732.117L638.854 772.537L816.024 770.01L738.759 644.114L675.673 641.848L643.237 732.117Z" fill="#02006E"/>
<path opacity="0.28" d="M643.237 732.117L638.854 772.537L816.024 770.01L738.759 644.114L675.673 641.848L643.237 732.117Z" fill="black"/>
<path d="M678.075 739.056L671.82 776.04V809.098L722.25 825.56C722.25 825.56 716.347 953.964 724.217 962.142L724.024 981.885L746.024 982.885L746.203 968.991L755.53 865.135L761.024 788.885L752.117 731.074L678.075 739.056Z" fill="#02006E"/>
<path d="M717.145 770.892L671.82 809.098C671.82 809.098 669.167 878.03 675.903 886.114C681.689 893.057 756.941 952.946 756.941 952.946C756.941 952.946 770.316 965.214 777.811 965.41C785.306 965.605 794.023 949.885 794.023 949.885L776.665 936.696C776.665 936.696 731.696 894.721 718.344 878.03C712.954 871.294 712.954 870.62 712.954 870.62L714.795 842.606L733.32 790.615L717.145 770.892Z" fill="#02006E"/>
<path d="M669.023 587.885L649.481 586.079L631.755 589.033L594.221 589.045L591.023 616.249L625.276 623.914L633.623 619.823L668.418 633.08L669.023 587.885Z" fill="#02006E"/>
<path d="M692.365 587.8C692.365 587.8 733.839 583.914 743.27 591.324C752.701 598.734 772.911 745.59 772.911 745.59L692.365 750.136L677.926 740.201L682.025 666.885L692.365 587.8Z" fill="#C2D7FF"/>
<path d="M705.023 586.885L659.274 587.889L616.621 780.62L650.304 788.031L705.023 586.885Z" fill="#02006E"/>
<path d="M737.547 585.256L773.584 596.535L771.537 675.722L816.025 770.396L763.726 775.905L722.387 673.675L737.547 585.256Z" fill="#02006E"/>
<path d="M796.97 780.013C798.233 778.9 799.238 777.525 799.912 775.983C800.586 774.44 800.914 772.769 800.872 771.086C800.831 769.404 800.421 767.751 799.671 766.244C798.921 764.737 797.851 763.412 796.534 762.364L803.784 737.072L789.489 728.918L779.752 764.778C778.138 767.107 777.433 769.947 777.773 772.761C778.112 775.574 779.472 778.165 781.595 780.043C783.717 781.921 786.454 782.955 789.288 782.949C792.122 782.944 794.855 781.899 796.97 780.013Z" fill="#FFB8B8"/>
<path d="M752.701 598.734L774.024 596.885C774.024 596.885 793.168 616.906 797.523 632.408C801.878 647.911 806.593 696.414 806.593 696.414L804.626 767.369L779.701 750.443L778.029 689.412L752.701 598.734Z" fill="#02006E"/>
<path d="M747.557 563.07C755.564 548.422 750.181 530.057 735.533 522.049C720.885 514.042 702.519 519.426 694.512 534.073C686.505 548.721 691.888 567.087 706.536 575.094C721.184 583.102 739.55 577.718 747.557 563.07Z" fill="#FFB8B8"/>
<path d="M717.664 535.953C713.698 535.036 709.581 536.052 705.564 536.71C701.547 537.368 697.121 537.585 693.723 535.344C691.214 533.689 689.671 530.951 688.222 528.317C687.618 527.377 687.215 526.321 687.039 525.217C686.869 523.269 688.108 521.491 689.424 520.045C695.536 513.327 704.467 509.649 713.475 508.481C720.903 507.374 728.492 508.301 735.436 511.163C742.273 514.162 748.151 519.654 750.839 526.619C752.077 530.184 752.851 533.894 753.14 537.657C753.546 540.425 753.598 543.234 753.295 546.016C752.933 548.078 752.391 550.105 751.675 552.072L747.222 565.518C746.902 566.789 746.304 567.972 745.471 568.984C745.043 569.479 744.466 569.823 743.826 569.963C743.187 570.103 742.519 570.032 741.923 569.761C742.28 568.301 742.334 566.783 742.083 565.301C741.944 564.562 741.586 563.882 741.057 563.348C740.528 562.814 739.851 562.451 739.113 562.306C737.472 562.132 736.07 563.404 734.513 563.952C733.8 564.163 733.053 564.232 732.314 564.154C731.575 564.077 730.858 563.854 730.205 563.5C729.552 563.145 728.975 562.666 728.507 562.088C728.039 561.511 727.689 560.847 727.478 560.134C727.436 559.991 727.399 559.845 727.368 559.699C727.122 558.161 727.535 556.516 726.952 555.072C726.269 553.381 724.459 552.495 723.099 551.279C721.858 550.134 720.97 548.658 720.539 547.026C720.108 545.393 720.152 543.671 720.666 542.063C721.03 540.944 722.058 540.435 721.852 539.149C721.582 537.463 719.096 536.284 717.664 535.953Z" fill="#02006E"/>
<path d="M381.612 663.725H0V425H381.612V663.725Z" fill="white"/>
<path d="M381.612 663.725H0V425H381.612V663.725ZM1.74252 661.983H379.869V426.743H1.74252V661.983Z" fill="#575F9D"/>
<path d="M334.999 994.369H117.184V755.644H334.999V994.369Z" fill="white"/>
<path d="M334.999 994.369H117.184V755.644H334.999V994.369ZM118.926 992.626H333.256V757.386H118.926V992.626Z" fill="#575F9D"/>
<path d="M305.376 971.822H260.07V973.659H305.376V971.822Z" fill="#575F9D"/>
<path d="M305.376 977.332H260.07V979.169H305.376V977.332Z" fill="#575F9D"/>
<path d="M305.376 982.842H260.07V984.678H305.376V982.842Z" fill="#575F9D"/>
<path d="M226.092 798.335V817.503C237.465 817.503 248.582 820.875 258.039 827.194C267.495 833.512 274.865 842.493 279.218 853C283.57 863.508 284.709 875.07 282.49 886.224C280.271 897.379 274.795 907.625 266.753 915.667L280.306 929.22C291.029 918.498 298.331 904.836 301.289 889.964C304.248 875.091 302.729 859.675 296.926 845.665C291.123 831.655 281.296 819.681 268.688 811.256C256.079 802.832 241.256 798.335 226.092 798.335Z" fill="#C2D7FF"/>
<path d="M280.307 929.22L266.754 915.667C256.923 925.5 243.861 931.437 229.988 932.377C216.115 933.318 202.371 929.199 191.303 920.782L179.701 936.048C194.462 947.266 212.787 952.756 231.285 951.501C249.782 950.246 267.198 942.33 280.307 929.22Z" fill="#575A89"/>
<path d="M168.59 875.006C168.59 867.454 170.077 859.977 172.967 853C175.857 846.024 180.092 839.685 185.432 834.345C190.772 829.005 197.111 824.77 204.087 821.88C211.064 818.99 218.541 817.503 226.093 817.503V798.335C210.043 798.335 194.397 803.372 181.362 812.736C168.326 822.099 158.558 835.318 153.434 850.528C148.31 865.739 148.089 882.174 152.801 897.516C157.514 912.859 166.922 926.336 179.701 936.048L191.303 920.782C184.239 915.424 178.512 908.503 174.571 900.561C170.631 892.619 168.583 883.872 168.59 875.006Z" fill="#F9A826"/>
<path d="M657.366 846.254H439.551V607.529H657.366V846.254Z" fill="white"/>
<path d="M657.366 846.254H439.551V607.529H657.366V846.254ZM441.293 844.512H655.623V609.271H441.293V844.512Z" fill="#575F9D"/>
<path d="M510.123 753.465H470.916V816.196H510.123V753.465Z" fill="#575A89"/>
<path d="M566.754 710.773H527.547V816.196H566.754V710.773Z" fill="#C2D7FF"/>
<path d="M623.386 661.112H584.18V816.196H623.386V661.112Z" fill="#F9A826"/>
<path d="M636.455 817.939H460.461V635.845H462.203V816.196H636.455V817.939Z" fill="#575F9D"/>
<path d="M594.023 613.885C600.651 613.885 606.023 608.512 606.023 601.885C606.023 595.257 600.651 589.885 594.023 589.885C587.396 589.885 582.023 595.257 582.023 601.885C582.023 608.512 587.396 613.885 594.023 613.885Z" fill="#FFB8B8"/>
<path d="M840.59 1014H653.59C653.325 1014 653.07 1013.89 652.883 1013.71C652.695 1013.52 652.59 1013.27 652.59 1013C652.59 1012.73 652.695 1012.48 652.883 1012.29C653.07 1012.11 653.325 1012 653.59 1012H840.59C840.855 1012 841.109 1012.11 841.297 1012.29C841.484 1012.48 841.59 1012.73 841.59 1013C841.59 1013.27 841.484 1013.52 841.297 1013.71C841.109 1013.89 840.855 1014 840.59 1014Z" fill="#CCCCCC"/>
<path d="M328.616 613.799H52.9973C52.7686 613.799 52.5492 613.708 52.3874 613.546C52.2256 613.384 52.1348 613.165 52.1348 612.936V480.832C52.1348 480.604 52.2256 480.384 52.3874 480.222C52.5492 480.061 52.7685 479.97 52.9973 479.97C53.2261 479.97 53.4455 480.061 53.6072 480.222C53.769 480.384 53.8599 480.604 53.8599 480.832V612.074H328.616C328.729 612.073 328.842 612.095 328.947 612.138C329.052 612.182 329.147 612.245 329.227 612.325C329.308 612.405 329.372 612.501 329.415 612.605C329.459 612.71 329.481 612.823 329.481 612.936C329.481 613.05 329.459 613.162 329.415 613.267C329.372 613.372 329.308 613.467 329.227 613.547C329.147 613.627 329.052 613.691 328.947 613.734C328.842 613.777 328.729 613.799 328.616 613.799Z" fill="#575F9D"/>
<path d="M111.885 604.311H86.8164C86.1376 604.31 85.4867 604.04 85.0067 603.56C84.5267 603.08 84.2567 602.429 84.2559 601.75V567.193C84.2567 566.514 84.5267 565.864 85.0067 565.384C85.4867 564.904 86.1376 564.634 86.8164 564.633H111.885C112.564 564.634 113.215 564.904 113.695 565.384C114.175 565.864 114.445 566.514 114.445 567.193V601.75C114.445 602.429 114.175 603.08 113.695 603.56C113.215 604.04 112.564 604.31 111.885 604.311Z" fill="#F9A826"/>
<path d="M157.6 604.31H132.531C131.852 604.31 131.202 604.04 130.722 603.56C130.242 603.08 129.972 602.429 129.971 601.75V534.416C129.972 533.737 130.242 533.086 130.722 532.606C131.202 532.126 131.852 531.856 132.531 531.855H157.6C158.279 531.856 158.929 532.126 159.409 532.606C159.889 533.086 160.159 533.737 160.16 534.416V601.75C160.159 602.429 159.889 603.08 159.409 603.56C158.929 604.04 158.279 604.31 157.6 604.31Z" fill="#F9A826"/>
<path d="M203.317 604.311H178.248C177.569 604.31 176.918 604.04 176.438 603.56C175.958 603.08 175.688 602.429 175.688 601.75V567.193C175.688 566.514 175.958 565.864 176.438 565.384C176.918 564.904 177.569 564.634 178.248 564.633H203.317C203.995 564.634 204.646 564.904 205.126 565.384C205.606 565.864 205.876 566.514 205.877 567.193V601.75C205.876 602.429 205.606 603.08 205.126 603.56C204.646 604.04 203.995 604.31 203.317 604.311Z" fill="#F9A826"/>
<path d="M249.031 604.31H223.963C223.299 604.325 222.658 604.075 222.178 603.617C221.698 603.159 221.419 602.529 221.402 601.866V521.361C221.419 520.698 221.698 520.068 222.178 519.61C222.658 519.152 223.299 518.903 223.963 518.917H249.031C249.695 518.903 250.337 519.152 250.817 519.61C251.297 520.068 251.575 520.698 251.592 521.361V601.866C251.575 602.529 251.297 603.159 250.817 603.617C250.337 604.075 249.695 604.325 249.031 604.31Z" fill="#F9A826"/>
<path d="M294.746 604.31H269.678C268.999 604.31 268.348 604.04 267.868 603.56C267.388 603.08 267.118 602.429 267.117 601.75V498.188C267.118 497.509 267.388 496.859 267.868 496.379C268.348 495.899 268.999 495.629 269.678 495.628H294.746C295.425 495.629 296.076 495.899 296.556 496.379C297.036 496.859 297.306 497.509 297.307 498.188V601.75C297.306 602.429 297.036 603.08 296.556 603.56C296.076 604.04 295.425 604.31 294.746 604.31Z" fill="#F9A826"/>
<path d="M99.3492 554.282C102.207 554.282 104.525 551.965 104.525 549.107C104.525 546.248 102.207 543.931 99.3492 543.931C96.4909 543.931 94.1738 546.248 94.1738 549.107C94.1738 551.965 96.4909 554.282 99.3492 554.282Z" fill="#575F9D"/>
<path d="M145.066 520.642C147.924 520.642 150.241 518.325 150.241 515.467C150.241 512.609 147.924 510.292 145.066 510.292C142.208 510.292 139.891 512.609 139.891 515.467C139.891 518.325 142.208 520.642 145.066 520.642Z" fill="#575F9D"/>
<path d="M190.781 554.282C193.639 554.282 195.956 551.965 195.956 549.107C195.956 546.248 193.639 543.931 190.781 543.931C187.923 543.931 185.605 546.248 185.605 549.107C185.605 551.965 187.923 554.282 190.781 554.282Z" fill="#575F9D"/>
<path d="M236.498 504.254C239.356 504.254 241.673 501.936 241.673 499.078C241.673 496.22 239.356 493.903 236.498 493.903C233.639 493.903 231.322 496.22 231.322 499.078C231.322 501.936 233.639 504.254 236.498 504.254Z" fill="#575F9D"/>
<path d="M282.212 485.277C285.071 485.277 287.388 482.96 287.388 480.102C287.388 477.244 285.071 474.927 282.212 474.927C279.354 474.927 277.037 477.244 277.037 480.102C277.037 482.96 279.354 485.277 282.212 485.277Z" fill="#575F9D"/>
<path d="M190.889 550.266L145.065 515.943L99.866 549.797L98.832 548.416L145.065 513.787L190.671 547.947L235.992 498.352L236.174 498.278L281.889 479.858L282.534 481.459L237 499.805L190.889 550.266Z" fill="#575F9D"/>
</g>
<g clip-path="url(#clip1_316_595)">
<path d="M1577.46 594.65H975.67C976.52 589.83 978.18 585.27 980.5 581.14C987.91 567.94 1002.04 559 1018.23 559H1534.9C1551.08 559 1565.22 567.94 1572.62 581.14C1574.94 585.27 1576.61 589.83 1577.46 594.65Z" fill="#E4EDFF"/>
<path d="M1694.53 1012.7C1694.53 1013.36 1694 1013.89 1693.34 1013.89H1446.05C1445.39 1013.89 1444.86 1013.36 1444.86 1012.7C1444.86 1012.38 1444.98 1012.1 1445.18 1011.89H1534.9C1536.81 1011.89 1538.68 1011.76 1540.52 1011.51H1693.34C1694 1011.51 1694.53 1012.04 1694.53 1012.7Z" fill="#3F3D56"/>
<path d="M1417.22 770.14H1135.91C1133.29 770.14 1131.16 767.449 1131.16 764.14C1131.16 760.832 1133.29 758.14 1135.91 758.14H1417.22C1419.83 758.14 1421.96 760.832 1421.96 764.14C1421.96 767.449 1419.83 770.14 1417.22 770.14Z" fill="#C2D7FF"/>
<path d="M1577.46 594.65C1576.61 589.83 1574.94 585.27 1572.62 581.14C1565.22 567.94 1551.08 559 1534.9 559H1018.23C1002.04 559 987.91 567.94 980.5 581.14C978.18 585.27 976.52 589.83 975.67 594.65C975.23 597.11 975 599.64 975 602.23V970.66C975 994.5 994.39 1013.89 1018.23 1013.89H1534.9C1539.84 1013.89 1544.6 1013.05 1549.03 1011.51C1565.95 1005.65 1578.13 989.55 1578.13 970.66V602.23C1578.13 599.65 1577.9 597.11 1577.46 594.65ZM1576.13 970.66C1576.13 991.52 1560.63 1008.77 1540.52 1011.51C1538.68 1011.76 1536.81 1011.89 1534.9 1011.89H1079.64C1022.95 1011.89 977 965.93 977 909.24V602.23C977 599.64 977.24 597.11 977.7 594.65C978.6 589.79 980.35 585.24 982.8 581.14C989.99 569.08 1003.17 561 1018.23 561H1534.9C1549.96 561 1563.14 569.08 1570.33 581.14C1572.78 585.24 1574.53 589.79 1575.43 594.65C1575.89 597.11 1576.13 599.64 1576.13 602.23V970.66Z" fill="#575F9D"/>
<path d="M1550.93 775.08L1547.54 762.672L1562.77 757.032L1564.46 768.312L1550.93 775.08Z" fill="#FFB6B6"/>
<path opacity="0.1" d="M1550.93 775.08L1547.54 762.672L1556.51 758.889L1553.72 773.517L1550.93 775.08Z" fill="black"/>
<path d="M1506.35 881.417C1503.44 879.687 1503.29 874.579 1506.01 870.008C1507.2 868.008 1508.74 866.442 1510.34 865.458L1511.94 862.849L1532.14 826.633C1532.14 826.633 1540.99 792.477 1544.59 788.347C1548.19 784.217 1553.39 785.19 1553.39 785.19L1558.01 789.291L1541.53 837.669L1521.2 866.307L1518.47 870.292C1518.37 872.171 1517.73 874.274 1516.54 876.275C1513.82 880.845 1509.26 883.148 1506.35 881.417Z" fill="#FFB6B6"/>
<path d="M1550.09 771.535C1550.09 771.535 1556.52 771.287 1560.57 776.278C1564.63 781.27 1543.39 837.527 1543.39 837.527L1526.09 836.915L1550.09 771.535Z" fill="#F9A826"/>
<path d="M1551.77 764.646C1560.49 764.646 1567.56 757.576 1567.56 748.854C1567.56 740.133 1560.49 733.063 1551.77 733.063C1543.05 733.063 1535.98 740.133 1535.98 748.854C1535.98 757.576 1543.05 764.646 1551.77 764.646Z" fill="#FFB6B6"/>
<path d="M1514.83 978.114L1504.12 1004.62L1497.91 998.417L1495.66 986.574L1504.68 975.294L1514.83 978.114Z" fill="#FFB6B6"/>
<path d="M1615.22 968.526L1625.94 980.934L1620.86 991.085L1609.58 989.394L1603.94 973.602L1615.22 968.526Z" fill="#FFB6B6"/>
<path d="M1543.88 820.48L1542.47 843.322L1577.43 837.118L1575.18 823.018L1543.88 820.48Z" fill="#FFB6B6"/>
<path d="M1542.19 843.604L1577.43 832.042C1577.43 832.042 1590.41 857.985 1576.31 874.341C1562.21 890.696 1515.4 983.754 1515.4 983.754L1501.3 976.986L1521.6 917.768L1544.16 863.061L1542.19 843.604Z" fill="#02006E"/>
<path d="M1576.31 864.753L1589.84 923.971L1618.04 969.654L1603.38 978.114L1563.9 923.971L1550.93 882.237L1576.31 864.753Z" fill="#02006E"/>
<path d="M1490.58 984.318H1480.81C1480.81 984.318 1469.42 979.806 1466.74 984.318C1464.07 988.83 1478.66 1001.63 1478.66 1001.63C1478.66 1001.63 1499.04 1013.08 1501.86 1012.52C1504.68 1011.95 1505.81 1005.19 1505.81 1005.19L1509.19 997.289L1504.12 998.981C1504.12 998.981 1497.35 995.033 1499.04 988.266L1490.58 984.318Z" fill="#02006E"/>
<path d="M1623.68 982.626V976.986L1630.24 982.626C1630.24 982.626 1641.16 986.574 1632.7 995.033C1624.24 1003.49 1613.53 1012.52 1613.53 1012.52C1613.53 1012.52 1596.61 1017.03 1595.48 1011.95C1594.35 1006.88 1595.48 1004.82 1595.48 1004.82L1601.69 1001.8L1607.33 987.138L1616.35 988.266L1623.68 982.626Z" fill="#02006E"/>
<path d="M1556.57 751.956L1551.49 751.392L1542.18 742.087C1542.18 742.087 1533.72 746.598 1533.72 743.215C1533.72 727.423 1543.31 727.987 1551.21 726.859C1559.1 725.731 1558.26 725.449 1560.8 729.679C1561.96 731.613 1566.15 732.781 1566.15 732.781C1566.15 732.781 1574.05 722.065 1578 735.037C1581.95 748.008 1576.87 788.051 1580.82 791.435C1584.77 794.819 1564.61 798.198 1566.79 784.947C1568.97 771.696 1572.92 751.392 1570.67 746.88C1568.41 742.369 1567.85 743.497 1567.85 743.497C1570.64 742.355 1572.47 762.461 1561.93 763.445L1561.64 753.648C1561.64 753.648 1559.95 748.572 1556.57 751.956Z" fill="#02006E"/>
<path d="M1549.52 771.414L1566.44 764.646L1589 832.324L1542.58 830.633L1538.4 810.434C1538.4 810.434 1534.32 799.92 1537.7 793.717C1541.09 787.513 1549.52 771.414 1549.52 771.414Z" fill="#F9A826"/>
<path d="M1593.54 884.783C1590.17 885.073 1587.07 881.012 1586.62 875.713C1586.42 873.394 1586.76 871.222 1587.49 869.488L1587.26 866.437L1582.56 825.235C1582.56 825.235 1573.82 791.532 1574.33 786.077C1574.85 780.623 1575.67 779.175 1575.67 779.175L1581.81 779.815L1596.62 828.728L1596.8 863.852L1596.91 868.679C1597.92 870.263 1598.63 872.345 1598.83 874.664C1599.28 879.963 1596.92 884.494 1593.54 884.783Z" fill="#FFB6B6"/>
<path d="M1565.03 770.004C1565.03 770.004 1570.1 766.056 1576.31 767.748C1582.51 769.44 1598.05 827.53 1598.05 827.53L1583.64 837.118L1565.03 770.004Z" fill="#F9A826"/>
<path d="M1271.2 867.64H1203.55C1199.42 867.64 1196.06 864.281 1196.06 860.152V853.385C1196.06 849.256 1199.42 845.898 1203.55 845.898H1271.2C1275.33 845.898 1278.69 849.256 1278.69 853.385V860.152C1278.69 864.281 1275.33 867.64 1271.2 867.64Z" fill="#F9A826"/>
<path d="M1531.2 646.511H1463.55C1459.42 646.511 1456.06 643.152 1456.06 639.023V632.256C1456.06 628.127 1459.42 624.769 1463.55 624.769H1531.2C1535.33 624.769 1538.69 628.127 1538.69 632.256V639.023C1538.69 643.152 1535.33 646.511 1531.2 646.511Z" fill="#F9A826"/>
<path d="M1371.57 868.14H1303.92C1299.51 868.14 1295.93 864.556 1295.93 860.152V853.385C1295.93 848.981 1299.51 845.398 1303.92 845.398H1371.57C1375.98 845.398 1379.56 848.981 1379.56 853.385V860.152C1379.56 864.556 1375.98 868.14 1371.57 868.14ZM1303.92 847.398C1300.62 847.398 1297.93 850.084 1297.93 853.385V860.152C1297.93 863.454 1300.62 866.14 1303.92 866.14H1371.57C1374.88 866.14 1377.56 863.454 1377.56 860.152V853.385C1377.56 850.083 1374.88 847.398 1371.57 847.398H1303.92Z" fill="#F9A826"/>
<path d="M1454.56 739.14H1098.56C1095.25 739.14 1092.56 736.449 1092.56 733.14C1092.56 729.832 1095.25 727.14 1098.56 727.14H1454.56C1457.87 727.14 1460.56 729.832 1460.56 733.14C1460.56 736.449 1457.87 739.14 1454.56 739.14Z" fill="#C2D7FF"/>
<path d="M1075.89 641.64H1030.89C1027.58 641.64 1024.89 638.948 1024.89 635.64C1024.89 632.331 1027.58 629.64 1030.89 629.64H1075.89C1079.2 629.64 1081.89 632.331 1081.89 635.64C1081.89 638.948 1079.2 641.64 1075.89 641.64Z" fill="#C2D7FF"/>
<path d="M1344.89 641.64H1299.89C1296.58 641.64 1293.89 638.948 1293.89 635.64C1293.89 632.331 1296.58 629.64 1299.89 629.64H1344.89C1348.2 629.64 1350.89 632.331 1350.89 635.64C1350.89 638.948 1348.2 641.64 1344.89 641.64Z" fill="#C2D7FF"/>
<path d="M1429.89 641.64H1384.89C1381.58 641.64 1378.89 638.948 1378.89 635.64C1378.89 632.331 1381.58 629.64 1384.89 629.64H1429.89C1433.2 629.64 1435.89 632.331 1435.89 635.64C1435.89 638.948 1433.2 641.64 1429.89 641.64Z" fill="#C2D7FF"/>
<path d="M1375.56 801.14H1177.56C1174.25 801.14 1171.56 798.449 1171.56 795.14C1171.56 791.832 1174.25 789.14 1177.56 789.14H1375.56C1378.87 789.14 1381.56 791.832 1381.56 795.14C1381.56 798.449 1378.87 801.14 1375.56 801.14Z" fill="#C2D7FF"/>
<path d="M1384.19 932.396H1168.93C1166.93 932.396 1165.31 930.769 1165.31 928.768C1165.31 926.767 1166.93 925.14 1168.93 925.14H1384.19C1386.19 925.14 1387.82 926.767 1387.82 928.768C1387.82 930.769 1386.19 932.396 1384.19 932.396Z" fill="#C2D7FF"/>
<path d="M1386.19 580.396H1170.94C1168.94 580.396 1167.31 578.768 1167.31 576.768C1167.31 574.767 1168.94 573.14 1170.94 573.14H1386.19C1388.19 573.14 1389.82 574.767 1389.82 576.768C1389.82 578.768 1388.19 580.396 1386.19 580.396Z" fill="white"/>
</g>
<defs>
<clipPath id="clip0_316_595">
<rect width="841.59" height="589" fill="white" transform="translate(0 425)"/>
</clipPath>
<clipPath id="clip1_316_595">
<rect width="719.53" height="455.365" fill="white" transform="translate(975 559)"/>
</clipPath>
</defs>
</svg>
