<svg width="721" height="704" viewBox="0 0 721 704" fill="none" xmlns="http://www.w3.org/2000/svg">
<rect x="427" y="48" width="120" height="21.4331" rx="10" fill="#FFD789"/>
<rect x="427" y="79.1292" width="120" height="22.4537" rx="10" fill="#FFD789"/>
<rect x="427" y="111.279" width="87.3786" height="20.4125" rx="10" fill="#FFD789"/>
<mask id="path-4-inside-1_277_365" fill="white">
<path d="M539.326 131.874L554.32 119.324L596.685 169.383C600.173 173.505 599.644 179.655 595.504 183.121V183.121C591.363 186.587 585.179 186.055 581.691 181.933L539.326 131.874Z"/>
</mask>
<path d="M539.326 131.874L554.32 119.324L596.685 169.383C600.173 173.505 599.644 179.655 595.504 183.121V183.121C591.363 186.587 585.179 186.055 581.691 181.933L539.326 131.874Z" fill="#7BFFFF"/>
<path d="M539.326 131.874L526.406 116.607L511.069 129.444L523.989 144.711L539.326 131.874ZM554.32 119.324L569.657 106.487L556.737 91.2206L541.4 104.057L554.32 119.324ZM552.246 147.14L567.24 134.591L541.4 104.057L526.406 116.607L552.246 147.14ZM538.983 132.161L581.348 182.22L612.022 156.547L569.657 106.487L538.983 132.161ZM597.028 169.096L554.663 119.037L523.989 144.711L566.354 194.77L597.028 169.096ZM582.583 167.854C586.913 164.23 593.38 164.786 597.028 169.096L566.354 194.77C576.978 207.323 595.813 208.943 608.424 198.388L582.583 167.854ZM581.348 182.22C577.701 177.91 578.254 171.478 582.583 167.854L608.424 198.388C621.034 187.833 622.645 169.1 612.022 156.547L581.348 182.22Z" fill="#E4EDFF" mask="url(#path-4-inside-1_277_365)"/>
<path d="M560.817 100.361C554.863 122.187 532.211 135.156 510.151 129.205C488.091 123.253 475.134 100.678 481.088 78.8511C487.042 57.0246 509.695 44.0557 531.755 50.0072C553.815 55.9587 566.771 78.5344 560.817 100.361Z" fill="white" fill-opacity="0.6" stroke="#E4EDFF" stroke-width="20"/>
<path d="M235.012 149.821C232.683 151.305 231.998 154.396 233.482 156.725C234.966 159.054 238.057 159.739 240.386 158.255L235.012 149.821ZM314.644 105.005L317.331 109.221L321.496 106.567L318.893 102.369L314.644 105.005ZM294.409 72.382L291.813 68.1089L287.5 70.7292L290.16 75.0175L294.409 72.382ZM368.728 31.3628C369.383 28.6801 367.739 25.9745 365.056 25.3197L321.34 14.649C318.657 13.9942 315.952 15.6381 315.297 18.3208C314.642 21.0034 316.286 23.709 318.968 24.3638L357.828 33.8489L348.343 72.708C347.688 75.3907 349.332 78.0962 352.014 78.7511C354.697 79.4059 357.402 77.762 358.057 75.0793L368.728 31.3628ZM240.386 158.255L317.331 109.221L311.957 100.788L235.012 149.821L240.386 158.255ZM318.893 102.369L298.658 69.7465L290.16 75.0175L310.395 107.64L318.893 102.369ZM297.006 76.6551L366.467 34.4502L361.274 25.9041L291.813 68.1089L297.006 76.6551Z" fill="#E4EDFF"/>
<ellipse cx="15.521" cy="33.8649" rx="15.521" ry="33.8649" transform="matrix(0.72351 0.690314 -0.663333 0.748324 370.928 192)" fill="#E4EDFF"/>
<path d="M341.245 255.597V255.597C362.67 249.294 378.929 231.109 383.374 208.474L383.998 205.298L396.253 238.935L408.52 256.699L391.978 273.819L370.624 262.071L341.245 255.597Z" fill="#C2D7FF"/>
<rect width="31.0264" height="27.9913" rx="10" transform="matrix(0.749051 0.662513 -0.634873 0.772617 403.76 249.194)" fill="#FFD789"/>
<path d="M366.413 247.352L389.02 261.799L386.46 266.11L377.964 261.558L353.998 253.534L360.206 250.443L366.413 247.352Z" fill="white" fill-opacity="0.1"/>
<path d="M394.184 277.73L402.2 284.907L396.198 298.631C394.585 302.319 390.338 303.937 386.678 302.259V302.259L394.184 277.73Z" fill="#C2D7FF"/>
<path d="M397.989 283.066L400.644 285.729L394.781 299.277C393.995 301.093 391.907 301.893 390.108 301.068V301.068L397.989 283.066Z" fill="white" fill-opacity="0.1"/>
<circle cx="108.833" cy="172.489" r="30.8327" stroke="#C2D7FF" stroke-width="4"/>
<path d="M123.907 171.833C123.907 180.634 121.976 188.502 118.954 194.099C115.888 199.775 111.987 202.665 108.177 202.665C104.366 202.665 100.465 199.775 97.4 194.099C94.3779 188.502 92.4473 180.634 92.4473 171.833C92.4473 163.032 94.3779 155.163 97.4 149.567C100.465 143.89 104.366 141 108.177 141C111.987 141 115.888 143.89 118.954 149.567C121.976 155.163 123.907 163.032 123.907 171.833Z" stroke="#C2D7FF" stroke-width="4"/>
<line x1="109.857" y1="140.957" x2="109.857" y2="204.672" stroke="#C2D7FF" stroke-width="4"/>
<line x1="76.6523" y1="170.814" x2="140.367" y2="170.814" stroke="#C2D7FF" stroke-width="4"/>
<path d="M80.2266 187.117V187.117C98.8409 182.838 118.181 182.814 136.806 187.047L137.115 187.117" stroke="#C2D7FF" stroke-width="4"/>
<path d="M79.9023 158.511V158.511C98.6257 162.791 118.071 162.815 136.805 158.581L137.116 158.511" stroke="#C2D7FF" stroke-width="4"/>
<rect x="97" y="175" width="58.9113" height="18.7212" rx="9.3606" fill="#FFA800"/>
<path d="M108.507 191.814L105.475 180.783H107.1C107.33 181.694 107.564 182.613 107.804 183.541C108.048 184.468 108.285 185.384 108.514 186.291C108.535 186.389 108.567 186.541 108.608 186.744C108.65 186.942 108.697 187.166 108.749 187.416C108.801 187.666 108.853 187.926 108.905 188.197C108.957 188.468 109.004 188.72 109.046 188.955C109.093 189.189 109.129 189.395 109.155 189.572C109.186 189.744 109.202 189.858 109.202 189.916L109.397 189.939L109.624 188.962C109.785 188.296 109.931 187.697 110.061 187.166C110.197 186.634 110.322 186.145 110.436 185.697C110.551 185.249 110.66 184.832 110.764 184.447C110.874 184.056 110.981 183.671 111.085 183.291C111.189 182.905 111.296 182.512 111.405 182.111C111.52 181.705 111.642 181.262 111.772 180.783H113.514L115.093 186.642C115.155 186.835 115.225 187.064 115.304 187.33C115.382 187.59 115.457 187.858 115.53 188.134C115.603 188.41 115.668 188.676 115.725 188.931C115.783 189.186 115.819 189.403 115.835 189.58L116.038 189.595L116.366 188.126C116.413 187.923 116.457 187.723 116.499 187.525C116.546 187.322 116.587 187.137 116.624 186.97C116.66 186.804 116.692 186.66 116.718 186.541C116.749 186.421 116.772 186.335 116.788 186.283L118.155 180.783H119.71L116.671 191.814H115.069L114.452 189.548C114.296 188.965 114.134 188.382 113.968 187.798C113.806 187.215 113.65 186.632 113.499 186.048C113.478 185.975 113.444 185.848 113.397 185.666C113.356 185.483 113.306 185.275 113.249 185.041C113.197 184.801 113.139 184.551 113.077 184.291C113.02 184.025 112.965 183.775 112.913 183.541C112.866 183.301 112.827 183.093 112.796 182.916C112.764 182.733 112.749 182.608 112.749 182.541L112.546 182.525L111.647 186.072L110.077 191.814H108.507ZM123.335 191.814L120.304 180.783H121.929C122.158 181.694 122.392 182.613 122.632 183.541C122.876 184.468 123.113 185.384 123.343 186.291C123.363 186.389 123.395 186.541 123.436 186.744C123.478 186.942 123.525 187.166 123.577 187.416C123.629 187.666 123.681 187.926 123.733 188.197C123.785 188.468 123.832 188.72 123.874 188.955C123.921 189.189 123.957 189.395 123.983 189.572C124.014 189.744 124.03 189.858 124.03 189.916L124.225 189.939L124.452 188.962C124.613 188.296 124.759 187.697 124.889 187.166C125.025 186.634 125.15 186.145 125.264 185.697C125.379 185.249 125.488 184.832 125.593 184.447C125.702 184.056 125.809 183.671 125.913 183.291C126.017 182.905 126.124 182.512 126.233 182.111C126.348 181.705 126.47 181.262 126.6 180.783H128.343L129.921 186.642C129.983 186.835 130.054 187.064 130.132 187.33C130.21 187.59 130.285 187.858 130.358 188.134C130.431 188.41 130.496 188.676 130.554 188.931C130.611 189.186 130.647 189.403 130.663 189.58L130.866 189.595L131.194 188.126C131.241 187.923 131.285 187.723 131.327 187.525C131.374 187.322 131.416 187.137 131.452 186.97C131.488 186.804 131.52 186.66 131.546 186.541C131.577 186.421 131.6 186.335 131.616 186.283L132.983 180.783H134.538L131.499 191.814H129.897L129.28 189.548C129.124 188.965 128.962 188.382 128.796 187.798C128.634 187.215 128.478 186.632 128.327 186.048C128.306 185.975 128.272 185.848 128.225 185.666C128.184 185.483 128.134 185.275 128.077 185.041C128.025 184.801 127.968 184.551 127.905 184.291C127.848 184.025 127.793 183.775 127.741 183.541C127.694 183.301 127.655 183.093 127.624 182.916C127.593 182.733 127.577 182.608 127.577 182.541L127.374 182.525L126.475 186.072L124.905 191.814H123.335ZM138.163 191.814L135.132 180.783H136.757C136.986 181.694 137.22 182.613 137.46 183.541C137.705 184.468 137.942 185.384 138.171 186.291C138.192 186.389 138.223 186.541 138.264 186.744C138.306 186.942 138.353 187.166 138.405 187.416C138.457 187.666 138.509 187.926 138.561 188.197C138.613 188.468 138.66 188.72 138.702 188.955C138.749 189.189 138.785 189.395 138.811 189.572C138.843 189.744 138.858 189.858 138.858 189.916L139.054 189.939L139.28 188.962C139.442 188.296 139.587 187.697 139.718 187.166C139.853 186.634 139.978 186.145 140.093 185.697C140.207 185.249 140.317 184.832 140.421 184.447C140.53 184.056 140.637 183.671 140.741 183.291C140.845 182.905 140.952 182.512 141.061 182.111C141.176 181.705 141.298 181.262 141.429 180.783H143.171L144.749 186.642C144.811 186.835 144.882 187.064 144.96 187.33C145.038 187.59 145.113 187.858 145.186 188.134C145.259 188.41 145.324 188.676 145.382 188.931C145.439 189.186 145.475 189.403 145.491 189.58L145.694 189.595L146.022 188.126C146.069 187.923 146.113 187.723 146.155 187.525C146.202 187.322 146.244 187.137 146.28 186.97C146.317 186.804 146.348 186.66 146.374 186.541C146.405 186.421 146.429 186.335 146.444 186.283L147.811 180.783H149.366L146.327 191.814H144.725L144.108 189.548C143.952 188.965 143.791 188.382 143.624 187.798C143.462 187.215 143.306 186.632 143.155 186.048C143.134 185.975 143.1 185.848 143.054 185.666C143.012 185.483 142.962 185.275 142.905 185.041C142.853 184.801 142.796 184.551 142.733 184.291C142.676 184.025 142.621 183.775 142.569 183.541C142.522 183.301 142.483 183.093 142.452 182.916C142.421 182.733 142.405 182.608 142.405 182.541L142.202 182.525L141.304 186.072L139.733 191.814H138.163Z" fill="white"/>
<g clip-path="url(#clip0_277_365)">
<path d="M226.608 563.568L236.509 563.567L241.219 525.377L226.606 525.378L226.608 563.568Z" fill="#FFB6B6"/>
<path d="M226.26 573.897L256.707 573.896V573.511C256.707 570.368 255.458 567.353 253.236 565.131C251.013 562.909 247.999 561.66 244.856 561.66L239.294 557.441L228.917 561.661L226.26 561.661L226.26 573.897Z" fill="#02006E"/>
<path d="M191.608 563.568L201.509 563.567L206.219 525.377L191.606 525.378L191.608 563.568Z" fill="#FFB6B6"/>
<path d="M191.26 573.897L221.707 573.896V573.511C221.707 570.368 220.458 567.353 218.236 565.131C216.013 562.909 212.999 561.66 209.856 561.66L204.294 557.441L193.917 561.661L191.26 561.661L191.26 573.897Z" fill="#02006E"/>
<path d="M251.261 355.48C251.261 355.48 260.787 384.738 259.029 388.589C257.271 392.44 254.271 389.44 257.271 392.44C260.271 395.44 262.89 392.251 260.08 397.346C257.271 402.44 253.015 444.38 251.143 446.41C249.271 448.44 246.697 448.494 248.984 450.467C251.271 452.44 254.271 448.44 251.271 452.44C248.271 456.44 240.31 548.716 240.31 548.716H224.759C224.759 548.716 220.886 544.251 223.078 541.346C225.271 538.44 222.886 537.32 223.078 535.38C223.271 533.44 222.542 529.257 222.406 527.349C222.271 525.44 219.643 479.971 225.957 453.706L214.443 403.693L208.686 464.14C208.686 464.14 215.102 514.842 208.686 531.141C208.686 531.141 213.859 535.448 211.565 537.944C209.271 540.44 207.271 538.44 209.271 540.44C211.271 542.44 206.271 549.44 206.271 549.44L189.271 548.44L179.649 453.706C179.649 453.706 178.027 443.826 179.649 442.133C181.271 440.44 181.271 446.44 181.271 440.44V432.44C181.271 432.44 174.02 383.235 174.145 380.338C174.271 377.44 186.271 356.44 186.271 356.44L251.261 355.48Z" fill="#575F9D"/>
<path d="M200.982 237.147L225.805 235.44L233.232 247.152L251.121 254.425V312.119C249.26 317.706 248.298 323.552 248.271 329.44C248.339 340.934 251.294 354.475 250.271 357.44C240.271 386.44 185.271 357.44 185.271 357.44L186.271 326.44L184.914 256.381L196.153 247.417L200.982 237.147Z" fill="#FFD789"/>
<path d="M252.267 368.005L253.978 349.763L264.535 349.287L262.039 368.508C262.68 369.453 263.044 370.557 263.091 371.697C263.138 372.837 262.866 373.968 262.305 374.962C261.745 375.956 260.919 376.773 259.919 377.323C258.919 377.873 257.786 378.134 256.647 378.075C255.507 378.016 254.407 377.641 253.469 376.991C252.531 376.341 251.793 375.442 251.338 374.396C250.883 373.35 250.729 372.197 250.893 371.068C251.057 369.939 251.533 368.878 252.267 368.005Z" fill="#FFB6B6"/>
<path d="M247.072 252.886L247.365 252.936C250.087 253.397 252.655 254.515 254.848 256.193C257.041 257.871 258.792 260.058 259.949 262.564C262.972 269.102 272.789 312.081 268.486 318.562C265.148 323.589 265.959 322.609 267.528 326.4C269.097 330.192 271.624 326.146 269.553 332.164C267.482 338.182 265.206 337.323 267.128 339.649C269.051 341.974 271.023 341.518 269.153 345.412C267.284 349.307 267.588 350.621 267.234 352.088C266.881 353.554 267.188 363.869 267.188 363.869C267.188 363.869 255.912 363.014 250.3 365.696C250.3 365.696 253.431 355.278 251.661 353.61C249.89 351.942 247.767 351.741 249.283 349.313C250.799 346.886 254.237 346.783 250.495 345.571C246.752 344.359 247.958 322.615 247.958 322.615C241.795 306.475 244.23 279.927 247.072 252.886Z" fill="#FFD789"/>
<path d="M179.078 369.306L178.289 351.002L167.769 349.994L169.292 369.317C168.605 370.228 168.186 371.312 168.082 372.448C167.977 373.585 168.192 374.727 168.701 375.748C169.21 376.769 169.995 377.628 170.965 378.227C171.936 378.827 173.054 379.144 174.195 379.143C175.336 379.142 176.454 378.822 177.424 378.221C178.393 377.619 179.175 376.759 179.683 375.737C180.19 374.715 180.402 373.571 180.295 372.435C180.188 371.3 179.767 370.216 179.078 369.306Z" fill="#FFB6B6"/>
<path d="M190.074 254.597L189.779 254.632C187.038 254.955 184.416 255.942 182.141 257.507C179.866 259.072 178.007 261.168 176.725 263.613C173.376 269.99 162.78 313.182 165.375 319.109C167.794 324.637 167.694 323.277 165.936 326.985C164.177 330.693 161.858 326.525 163.623 332.639C165.387 338.754 167.704 338.011 165.666 340.237C163.629 342.462 161.683 341.907 163.353 345.891C165.024 349.875 164.654 351.172 164.933 352.655C165.212 354.137 164.385 364.424 164.385 364.424C164.385 364.424 175.69 364.138 181.159 367.1C181.159 367.1 178.558 356.538 180.41 354.961C182.262 353.385 184.393 353.29 183.002 350.789C181.61 348.288 178.181 348.013 181.98 346.991C185.779 345.969 185.672 324.192 185.672 324.192L190.074 254.597Z" fill="#FFD789"/>
<path d="M212.782 231.772C202.089 231.772 193.42 223.104 193.42 212.41C193.42 201.717 202.089 193.048 212.782 193.048C223.476 193.048 232.145 201.717 232.145 212.41C232.145 223.104 223.476 231.772 212.782 231.772Z" fill="#FFB6B6"/>
<path d="M199.308 228.984C196.615 226.877 196.354 222.859 194.056 220.327C190.214 216.094 188.408 211.539 190.421 206.522C192.201 202.085 191.823 196.631 195.657 193.775C193.774 193.093 193.331 191.677 194.992 191.651C196.113 191.634 200.289 193.775 198.28 191.107C196.27 188.44 200.074 189.493 199.823 188.401C199.571 187.309 197.957 186.704 197.246 187.57C197.847 186.956 198.58 186.488 199.389 186.201C200.198 185.913 201.063 185.815 201.916 185.912C202.769 186.01 203.589 186.301 204.313 186.764C205.036 187.226 205.645 187.848 206.092 188.582C208.356 185.188 210.76 182.852 214.225 185.006C217.629 187.122 217.584 189.736 221.244 189.108C222.965 188.813 223.127 192.063 224.303 193.354C224.846 194.04 225.552 194.579 226.357 194.922C227.162 195.266 228.04 195.402 228.912 195.319C230.627 194.995 231.939 192.858 230.978 191.4L235.02 200.624L236.65 198.625C239.239 200.312 238.389 204.715 235.782 206.376C233.176 208.037 229.79 207.682 226.788 206.946C223.176 206.06 219.446 205.75 215.736 206.029C210.07 206.83 206.124 213.604 208.222 218.928C206.045 216.79 202.017 218.564 200.89 221.399C199.762 224.234 200.589 227.428 201.425 230.363" fill="black"/>
</g>
<defs>
<clipPath id="clip0_277_365">
<rect width="109" height="390" fill="white" transform="matrix(-1 0 0 1 271 184)"/>
</clipPath>
</defs>
</svg>
